<svg width="256" height="110" viewBox="0 0 256 110" fill="none" xmlns="http://www.w3.org/2000/svg">
<mask id="path-1-inside-1_44_16" fill="white">
<path d="M0 0H256V110H0V0Z"/>
</mask>
<path d="M254 0V110H258V0H254Z" fill="#CEDADA" mask="url(#path-1-inside-1_44_16)"/>
<g clip-path="url(#clip0_44_16)">
<path d="M105.396 21.007H150.604C157.458 21.007 163 26.5401 163 33.3836V76.7743C163 83.6177 157.458 89.1509 150.604 89.1509H105.396C98.5418 89.1509 93 83.6177 93 76.7743V33.3836C93 26.5401 98.5418 21.007 105.396 21.007Z" fill="#00005B"/>
<path d="M121.117 61.7767H110.267L108.05 68.6492C107.992 68.9112 107.758 69.0859 107.496 69.0568H102.013C101.692 69.0568 101.604 68.8821 101.692 68.5327L111.084 41.6536C111.171 41.3623 111.259 41.1004 111.375 40.7509C111.492 40.1395 111.55 39.4987 111.55 38.858C111.521 38.7123 111.638 38.5667 111.784 38.5376H119.338C119.542 38.5376 119.688 38.6248 119.717 38.7705L130.363 68.4742C130.45 68.7946 130.363 68.9403 130.071 68.9403H123.975C123.771 68.9693 123.567 68.8237 123.508 68.6199L121.116 61.6308V61.7764L121.117 61.7767ZM111.959 55.9816H119.367C119.192 55.3702 118.959 54.6419 118.696 53.8849C118.433 53.0987 118.171 52.2542 117.909 51.3805C117.617 50.4778 117.354 49.6042 117.063 48.7015C116.771 47.7987 116.509 46.9542 116.275 46.1096C116.042 45.2941 115.838 44.5371 115.634 43.8381H115.575C115.313 45.0903 114.992 46.3425 114.584 47.5949C114.146 48.9928 113.709 50.4487 113.242 51.905C112.863 53.39 112.396 54.7588 111.959 55.9819V55.9816ZM147.542 59.1558H138.296C138.413 60.0585 138.704 60.9612 139.2 61.7476C139.725 62.5338 140.454 63.1455 141.329 63.4949C142.496 63.99 143.779 64.252 145.062 64.2229C146.083 64.1938 147.104 64.1063 148.096 63.9025C149 63.7859 149.875 63.5531 150.691 63.2327C150.837 63.1161 150.925 63.1745 150.925 63.4655V67.9213C150.925 68.0378 150.896 68.1541 150.866 68.2707C150.808 68.3582 150.75 68.4164 150.662 68.4745C149.729 68.8821 148.766 69.1734 147.746 69.3482C146.375 69.6101 145.004 69.7267 143.604 69.6976C141.387 69.6976 139.521 69.3482 138.004 68.6783C136.575 68.0666 135.321 67.1058 134.329 65.9117C133.396 64.7761 132.725 63.4946 132.316 62.0968C131.908 60.7281 131.704 59.3012 131.704 57.8452C131.704 56.2726 131.937 54.7291 132.433 53.2147C132.9 51.7588 133.629 50.4191 134.62 49.2251C135.583 48.0601 136.779 47.1283 138.149 46.4585C139.52 45.7887 141.154 45.5558 143.02 45.5558C144.566 45.5267 146.112 45.818 147.541 46.4585C148.737 46.9827 149.787 47.7691 150.604 48.7881C151.362 49.7783 151.975 50.8849 152.354 52.108C152.733 53.2729 152.908 54.4666 152.908 55.6607C152.908 56.3596 152.879 56.9713 152.85 57.5245C152.791 58.0778 152.762 58.4857 152.733 58.7476C152.704 58.9514 152.529 59.1261 152.325 59.1261C152.15 59.1261 151.829 59.1552 151.362 59.1843C150.895 59.2424 150.341 59.2718 149.67 59.2718C148.999 59.2718 148.299 59.1552 147.541 59.1552L147.542 59.1558ZM138.296 54.9042H144.45C145.208 54.9042 145.763 54.9042 146.112 54.8751C146.346 54.846 146.579 54.7876 146.783 54.6422V54.3509C146.783 53.9724 146.725 53.6229 146.608 53.2735C146.083 51.6428 144.537 50.536 142.816 50.5944C141.212 50.5069 139.696 51.3514 138.937 52.8077C138.587 53.4775 138.383 54.1765 138.296 54.9044L138.296 54.9042Z" fill="#9999FF"/>
</g>
<defs>
<clipPath id="clip0_44_16">
<rect width="70" height="68.1579" fill="white" transform="translate(93 21)"/>
</clipPath>
</defs>
</svg>
