<svg width="256" height="110" viewBox="0 0 256 110" fill="none" xmlns="http://www.w3.org/2000/svg">
<g clip-path="url(#clip0_100_40)">
<path d="M105.396 21.007H150.604C157.458 21.007 163 26.5402 163 33.3836V76.7743C163 83.6178 157.458 89.1509 150.604 89.1509H105.396C98.5418 89.1509 93 83.6178 93 76.7743V33.3836C93 26.5402 98.5418 21.007 105.396 21.007Z" fill="#00005B"/>
<path d="M121.117 61.7768H110.267L108.05 68.6493C107.992 68.9113 107.758 69.086 107.496 69.0569H102.013C101.692 69.0569 101.604 68.8822 101.692 68.5327L111.084 41.6537C111.171 41.3624 111.259 41.1004 111.375 40.751C111.492 40.1396 111.55 39.4988 111.55 38.858C111.521 38.7124 111.638 38.5667 111.784 38.5377H119.338C119.542 38.5377 119.688 38.6249 119.717 38.7705L130.363 68.4743C130.45 68.7947 130.363 68.9403 130.071 68.9403H123.975C123.771 68.9694 123.567 68.8238 123.508 68.6199L121.117 61.6308V61.7765L121.117 61.7768ZM111.959 55.9817H119.367C119.192 55.3703 118.959 54.642 118.696 53.8849C118.433 53.0988 118.171 52.2542 117.909 51.3806C117.617 50.4779 117.354 49.6042 117.063 48.7015C116.771 47.7988 116.509 46.9542 116.275 46.1097C116.042 45.2942 115.838 44.5371 115.634 43.8382H115.575C115.313 45.0904 114.992 46.3425 114.584 47.595C114.146 48.9928 113.709 50.4488 113.242 51.905C112.863 53.3901 112.396 54.7588 111.959 55.9819V55.9817ZM147.542 59.1558H138.296C138.413 60.0586 138.704 60.9613 139.2 61.7477C139.725 62.5338 140.454 63.1455 141.329 63.495C142.496 63.9901 143.779 64.252 145.062 64.223C146.083 64.1939 147.104 64.1064 148.096 63.9026C149 63.786 149.875 63.5531 150.692 63.2327C150.837 63.1162 150.925 63.1746 150.925 63.4656V67.9213C150.925 68.0379 150.896 68.1542 150.867 68.2708C150.808 68.3583 150.75 68.4164 150.662 68.4746C149.729 68.8822 148.767 69.1735 147.746 69.3482C146.375 69.6102 145.004 69.7267 143.604 69.6977C141.387 69.6977 139.521 69.3482 138.004 68.6784C136.575 68.0667 135.321 67.1058 134.329 65.9118C133.396 64.7762 132.725 63.4947 132.317 62.0969C131.908 60.7281 131.704 59.3012 131.704 57.8452C131.704 56.2727 131.937 54.7292 132.433 53.2148C132.9 51.7588 133.629 50.4192 134.62 49.2251C135.583 48.0602 136.779 47.1284 138.149 46.4586C139.52 45.7887 141.154 45.5559 143.02 45.5559C144.566 45.5268 146.112 45.8181 147.541 46.4586C148.737 46.9828 149.787 47.7692 150.604 48.7882C151.362 49.7784 151.975 50.8849 152.354 52.108C152.733 53.273 152.908 54.4667 152.908 55.6607C152.908 56.3596 152.879 56.9713 152.85 57.5246C152.792 58.0778 152.762 58.4857 152.733 58.7477C152.704 58.9515 152.529 59.1262 152.325 59.1262C152.15 59.1262 151.829 59.1553 151.362 59.1844C150.895 59.2425 150.341 59.2719 149.67 59.2719C148.999 59.2719 148.299 59.1553 147.541 59.1553L147.542 59.1558ZM138.296 54.9042H144.45C145.208 54.9042 145.763 54.9042 146.112 54.8751C146.346 54.8461 146.579 54.7876 146.783 54.6423V54.351C146.783 53.9724 146.725 53.623 146.608 53.2735C146.083 51.6428 144.537 50.536 142.817 50.5944C141.212 50.5069 139.696 51.3515 138.937 52.8078C138.587 53.4776 138.383 54.1765 138.296 54.9045L138.296 54.9042Z" fill="#9999FF"/>
</g>
<defs>
<clipPath id="clip0_100_40">
<rect width="70" height="68.1579" fill="white" transform="translate(93 21)"/>
</clipPath>
</defs>
</svg>
