<svg width="73" height="32" viewBox="0 0 73 32" fill="none" xmlns="http://www.w3.org/2000/svg">
<g clip-path="url(#clip0_120_250)">
<path d="M29.6426 6.6582H42.3574C44.2851 6.6582 45.8438 8.2144 45.8438 10.1391V22.3428C45.8438 24.2675 44.2851 25.8237 42.3574 25.8237H29.6426C27.7149 25.8237 26.1562 24.2675 26.1562 22.3428V10.1391C26.1562 8.2144 27.7149 6.6582 29.6426 6.6582Z" fill="#00005B"/>
<path d="M34.064 18.1247H31.0125L30.389 20.0576C30.3726 20.1313 30.307 20.1805 30.2332 20.1723H28.691C28.6008 20.1723 28.5762 20.1231 28.6008 20.0249L31.2422 12.4651C31.2668 12.3832 31.2914 12.3095 31.3243 12.2112C31.3571 12.0393 31.3735 11.8591 31.3735 11.6789C31.3653 11.6379 31.398 11.5969 31.4391 11.5887H33.5637C33.6211 11.5887 33.6621 11.6133 33.6703 11.6542L36.6645 20.0084C36.6891 20.0985 36.6645 20.1395 36.5824 20.1395H34.8679C34.8105 20.1477 34.7531 20.1067 34.7367 20.0494L34.064 18.0837V18.1247L34.064 18.1247ZM31.4883 16.4949H33.5719C33.5226 16.3229 33.457 16.1181 33.3832 15.9052C33.3093 15.6841 33.2355 15.4465 33.1617 15.2008C33.0797 14.9469 33.0059 14.7012 32.9238 14.4473C32.8418 14.1934 32.768 13.9559 32.7024 13.7184C32.6368 13.489 32.5794 13.2761 32.5219 13.0795H32.5055C32.4316 13.4317 32.3415 13.7839 32.2266 14.1361C32.1036 14.5293 31.9805 14.9388 31.8492 15.3483C31.7426 15.766 31.6113 16.151 31.4883 16.4949V16.4949ZM41.4961 17.3876H38.8957C38.9285 17.6415 39.0105 17.8954 39.15 18.1166C39.2976 18.3377 39.5027 18.5097 39.7488 18.608C40.0769 18.7472 40.4378 18.8209 40.7987 18.8127C41.0859 18.8046 41.373 18.7799 41.6518 18.7226C41.9061 18.6898 42.1522 18.6243 42.3819 18.5342C42.423 18.5014 42.4475 18.5179 42.4475 18.5997V19.8529C42.4475 19.8857 42.4393 19.9184 42.4312 19.9512C42.4148 19.9758 42.3983 19.9921 42.3737 20.0085C42.1113 20.1231 41.8405 20.2051 41.5534 20.2542C41.1678 20.3279 40.7823 20.3607 40.3885 20.3525C39.7651 20.3525 39.2401 20.2542 38.8135 20.0658C38.4116 19.8938 38.0589 19.6235 37.7799 19.2877C37.5175 18.9683 37.3288 18.6079 37.214 18.2148C37.0992 17.8298 37.0417 17.4285 37.0417 17.019C37.0417 16.5767 37.1073 16.1426 37.2467 15.7167C37.378 15.3072 37.5831 14.9304 37.8619 14.5946C38.1327 14.267 38.4689 14.0049 38.8545 13.8165C39.2401 13.6281 39.6994 13.5626 40.2244 13.5626C40.6592 13.5544 41.094 13.6364 41.4959 13.8165C41.8323 13.9639 42.1276 14.1851 42.3573 14.4717C42.5705 14.7502 42.7429 15.0614 42.8495 15.4054C42.9561 15.733 43.0053 16.0688 43.0053 16.4046C43.0053 16.6012 42.9971 16.7732 42.9889 16.9288C42.9726 17.0844 42.9643 17.1991 42.9561 17.2728C42.9479 17.3301 42.8987 17.3793 42.8413 17.3793C42.7921 17.3793 42.7018 17.3875 42.5705 17.3956C42.4393 17.412 42.2834 17.4202 42.0947 17.4202C41.9061 17.4202 41.7092 17.3875 41.4959 17.3875L41.4961 17.3876ZM38.8957 16.1918H40.6265C40.8398 16.1918 40.9957 16.1918 41.0941 16.1837C41.1597 16.1755 41.2253 16.1591 41.2827 16.1182V16.0362C41.2827 15.9298 41.2664 15.8315 41.2335 15.7332C41.0859 15.2746 40.6511 14.9633 40.1671 14.9797C39.7159 14.9551 39.2893 15.1926 39.0761 15.6022C38.9777 15.7906 38.9202 15.9872 38.8956 16.1919L38.8957 16.1918Z" fill="#9999FF"/>
</g>
<defs>
<clipPath id="clip0_120_250">
<rect width="19.6875" height="19.1694" fill="white" transform="translate(26.1562 6.65625)"/>
</clipPath>
</defs>
</svg>
