<svg width="144" height="63" viewBox="0 0 144 63" fill="none" xmlns="http://www.w3.org/2000/svg">
<g clip-path="url(#clip0_114_216)">
<path d="M59.2852 12.3164H84.7148C88.5703 12.3164 91.6875 15.4288 91.6875 19.2783V43.6855C91.6875 47.535 88.5703 50.6474 84.7148 50.6474H59.2852C55.4297 50.6474 52.3125 47.535 52.3125 43.6855V19.2783C52.3125 15.4288 55.4297 12.3164 59.2852 12.3164Z" fill="#00005B"/>
<path d="M68.1281 35.2495H62.025L60.778 39.1153C60.7453 39.2626 60.6139 39.3609 60.4664 39.3446H57.382C57.2015 39.3446 57.1524 39.2463 57.2015 39.0497L62.4844 23.9303C62.5335 23.7664 62.5828 23.619 62.6485 23.4225C62.7142 23.0786 62.747 22.7181 62.747 22.3577C62.7306 22.2758 62.7961 22.1938 62.8781 22.1775H67.1273C67.2422 22.1775 67.3242 22.2266 67.3406 22.3085L73.3289 39.0168C73.3782 39.1971 73.3289 39.279 73.1648 39.279H69.7359C69.621 39.2953 69.5062 39.2134 69.4733 39.0988L68.1279 35.1674V35.2493L68.1281 35.2495ZM62.9766 31.9897H67.1437C67.0453 31.6458 66.9141 31.2362 66.7664 30.8103C66.6186 30.3681 66.471 29.8931 66.3235 29.4016C66.1593 28.8939 66.0118 28.4024 65.8477 27.8947C65.6835 27.3869 65.536 26.9118 65.4048 26.4367C65.2736 25.978 65.1588 25.5522 65.0438 25.159H65.011C64.8633 25.8634 64.6829 26.5677 64.4531 27.2722C64.2071 28.0585 63.961 28.8775 63.6984 29.6966C63.4852 30.532 63.2226 31.3019 62.9766 31.9899V31.9897ZM82.9922 33.7752H77.7914C77.857 34.283 78.021 34.7908 78.2999 35.2331C78.5952 35.6753 79.0054 36.0194 79.4976 36.216C80.1539 36.4945 80.8757 36.6418 81.5975 36.6255C82.1717 36.6091 82.746 36.5599 83.3037 36.4453C83.8123 36.3797 84.3044 36.2487 84.7639 36.0685C84.8459 36.0029 84.8951 36.0358 84.8951 36.1995V38.7058C84.8951 38.7714 84.8787 38.8368 84.8623 38.9024C84.8296 38.9516 84.7966 38.9843 84.7475 39.017C84.2226 39.2463 83.6811 39.4101 83.1068 39.5084C82.3357 39.6558 81.5646 39.7214 80.7771 39.705C79.5302 39.705 78.4803 39.5084 77.6271 39.1316C76.8232 38.7876 76.1178 38.2471 75.5599 37.5754C75.0349 36.9367 74.6576 36.2158 74.4279 35.4295C74.1983 34.6596 74.0833 33.857 74.0833 33.038C74.0833 32.1534 74.2145 31.2852 74.4935 30.4334C74.756 29.6144 75.1661 28.8608 75.7238 28.1892C76.2653 27.5339 76.9379 27.0098 77.709 26.633C78.4801 26.2562 79.3988 26.1252 80.4488 26.1252C81.3184 26.1089 82.188 26.2727 82.9918 26.633C83.6645 26.9279 84.2552 27.3702 84.7146 27.9434C85.1411 28.5004 85.4857 29.1228 85.699 29.8108C85.9122 30.4661 86.0106 31.1376 86.0106 31.8092C86.0106 32.2024 85.9943 32.5464 85.9779 32.8576C85.9451 33.1688 85.9286 33.3983 85.9122 33.5456C85.8958 33.6603 85.7974 33.7585 85.6826 33.7585C85.5841 33.7585 85.4036 33.7749 85.1411 33.7913C84.8785 33.824 84.5668 33.8405 84.1895 33.8405C83.8121 33.8405 83.4184 33.7749 82.9918 33.7749L82.9922 33.7752ZM77.7914 31.3837H81.253C81.6796 31.3837 81.9914 31.3837 82.1881 31.3673C82.3193 31.351 82.4507 31.3181 82.5655 31.2363V31.0725C82.5655 30.8595 82.5327 30.663 82.4671 30.4664C82.1717 29.5491 81.3022 28.9266 80.3342 28.9594C79.4319 28.9102 78.5787 29.3853 78.1522 30.2044C77.9553 30.5812 77.8405 30.9743 77.7912 31.3838L77.7914 31.3837Z" fill="#9999FF"/>
</g>
<defs>
<clipPath id="clip0_114_216">
<rect width="39.375" height="38.3388" fill="white" transform="translate(52.3125 12.3125)"/>
</clipPath>
</defs>
</svg>
