<svg width="256" height="110" viewBox="0 0 256 110" fill="none" xmlns="http://www.w3.org/2000/svg">
<mask id="path-1-inside-1_44_21" fill="white">
<path d="M0 0H256V110H0V0Z"/>
</mask>
<path d="M254 0V110H258V0H254Z" fill="#CEDADA" mask="url(#path-1-inside-1_44_21)"/>
<g clip-path="url(#clip0_44_21)">
<path d="M105.396 20.875H150.604C157.459 20.875 163 26.4165 163 33.271V76.729C163 83.5835 157.459 89.125 150.604 89.125H105.396C98.5415 89.125 93 83.5835 93 76.729V33.271C93 26.4165 98.5415 20.875 105.396 20.875Z" fill="#001E36"/>
<path d="M118.084 38.229C117.209 38.229 116.334 38.229 115.43 38.2585C114.525 38.2875 113.679 38.2875 112.891 38.3171C112.104 38.346 111.375 38.346 110.675 38.375C110.004 38.404 109.538 38.404 109.041 38.404C108.838 38.404 108.75 38.5205 108.75 38.725V68.7375C108.75 69 108.866 69.1171 109.1 69.1171H114.759C114.962 69.0875 115.109 68.9125 115.079 68.7085V59.346C115.633 59.346 116.041 59.346 116.334 59.375C116.625 59.404 117.091 59.404 117.791 59.404C120.184 59.404 122.371 59.1415 124.354 58.4125C126.25 57.7125 127.884 56.4875 129.05 54.854C130.216 53.221 130.8 51.15 130.8 48.6415C130.8 47.329 130.567 46.075 130.13 44.85C129.666 43.6018 128.94 42.4679 128 41.525C126.891 40.4475 125.556 39.6304 124.091 39.133C122.458 38.5205 120.475 38.229 118.084 38.229ZM118.734 43.9739C119.773 43.9936 120.785 44.1752 121.729 44.558C122.575 44.879 123.275 45.4625 123.771 46.2205C124.237 47.0047 124.47 47.9054 124.442 48.8171C124.442 50.1 124.15 51.0921 123.538 51.821C122.895 52.55 122.079 53.1046 121.146 53.3671C120.066 53.7171 118.929 53.8915 117.791 53.8915H116.245C115.895 53.8915 115.517 53.8625 115.109 53.8335V44.0335C115.312 44.004 115.721 43.975 116.305 44.0046C116.859 43.975 117.529 43.975 118.288 43.975C118.437 43.9712 118.586 43.9706 118.734 43.9739ZM143.196 45.4631C141.125 45.4631 139.404 45.7835 138.034 46.4835C136.78 47.067 135.7 48 134.971 49.1665C134.33 50.246 133.979 51.4415 133.979 52.696C133.954 53.7279 134.185 54.7498 134.65 55.671C135.196 56.6518 135.953 57.4987 136.867 58.15C138.15 59.0274 139.542 59.7334 141.009 60.25C142.438 60.804 143.4 61.2415 143.867 61.6205C144.334 62 144.567 62.379 144.567 62.7875C144.567 63.3125 144.246 63.8085 143.78 64.0125C143.255 64.275 142.467 64.421 141.359 64.421C140.192 64.421 139.025 64.275 137.916 63.9835C136.644 63.699 135.423 63.2168 134.3 62.5546C134.212 62.496 134.125 62.4671 134.038 62.5256C133.95 62.5835 133.921 62.7 133.921 62.7875V67.8625C133.892 68.096 134.038 68.3 134.242 68.4165C135.188 68.8584 136.188 69.1724 137.217 69.35C138.53 69.6125 139.841 69.729 141.183 69.729C143.283 69.729 145.034 69.4085 146.463 68.796C147.775 68.271 148.912 67.3671 149.729 66.2C150.493 65.0526 150.89 63.6996 150.866 62.321C150.895 61.2797 150.665 60.2475 150.196 59.317C149.641 58.325 148.854 57.5085 147.891 56.896C146.483 56.0119 144.976 55.2971 143.4 54.7665C142.696 54.4754 142.005 54.1543 141.329 53.804C140.95 53.6 140.6 53.3375 140.337 53.0165C140.162 52.783 140.046 52.521 140.046 52.2585C140.046 51.996 140.134 51.7046 140.279 51.471C140.484 51.1796 140.804 50.975 141.183 50.8875C141.738 50.7421 142.35 50.654 142.933 50.683C144.041 50.683 145.12 50.829 146.2 51.0625C147.192 51.2665 148.125 51.5875 149 52.0546C149.116 52.1125 149.262 52.1125 149.525 52.0546C149.571 52.0209 149.608 51.9769 149.633 51.9261C149.659 51.8753 149.672 51.8193 149.671 51.7625V47.0085C149.671 46.8915 149.641 46.775 149.612 46.6585C149.554 46.5421 149.437 46.425 149.321 46.396C148.517 46.067 147.674 45.8416 146.813 45.725C145.615 45.5506 144.406 45.4634 143.196 45.4631Z" fill="#31A8FF"/>
</g>
<defs>
<clipPath id="clip0_44_21">
<rect width="70" height="70" fill="white" transform="translate(93 20)"/>
</clipPath>
</defs>
</svg>
