<svg width="73" height="32" viewBox="0 0 73 32" fill="none" xmlns="http://www.w3.org/2000/svg">
<g clip-path="url(#clip0_120_255)">
<path d="M29.6426 6.37109H42.3574C44.2852 6.37109 45.8438 7.92964 45.8438 9.85747V22.08C45.8438 24.0079 44.2852 25.5664 42.3574 25.5664H29.6426C27.7148 25.5664 26.1562 24.0079 26.1562 22.08V9.85747C26.1562 7.92964 27.7148 6.37109 29.6426 6.37109Z" fill="#001E36"/>
<path d="M33.211 11.2519C32.9649 11.2519 32.7188 11.2519 32.4646 11.2602C32.2102 11.2683 31.9722 11.2683 31.7507 11.2767C31.5292 11.2848 31.3242 11.2848 31.1273 11.293C30.9386 11.3011 30.8074 11.3011 30.6679 11.3011C30.6105 11.3011 30.5859 11.3339 30.5859 11.3914V19.8324C30.5859 19.9062 30.6187 19.9392 30.6844 19.9392H32.2758C32.3332 19.9309 32.3743 19.8816 32.366 19.8243V17.1911C32.5218 17.1911 32.6367 17.1911 32.7188 17.1992C32.8008 17.2074 32.932 17.2074 33.1289 17.2074C33.8016 17.2074 34.4168 17.1335 34.9746 16.9285C35.5078 16.7316 35.9672 16.3871 36.2953 15.9277C36.6234 15.4684 36.7875 14.8859 36.7875 14.1804C36.7875 13.8113 36.722 13.4586 36.5989 13.1141C36.4686 12.763 36.2644 12.4441 36 12.1789C35.6881 11.8758 35.3125 11.646 34.9007 11.5061C34.4413 11.3339 33.8836 11.2519 33.211 11.2519ZM33.394 12.8677C33.6863 12.8732 33.9708 12.9243 34.2363 13.0319C34.4742 13.1222 34.6711 13.2863 34.8106 13.4995C34.9416 13.7201 35.0071 13.9734 34.9993 14.2298C34.9993 14.5906 34.9172 14.8696 34.7449 15.0747C34.5644 15.2797 34.3347 15.4356 34.0723 15.5095C33.7687 15.6079 33.4488 15.657 33.1289 15.657H32.694C32.5956 15.657 32.4892 15.6488 32.3743 15.6407V12.8844C32.4316 12.8761 32.5465 12.868 32.7106 12.8763C32.8665 12.868 33.055 12.868 33.2684 12.868C33.3103 12.8669 33.3523 12.8667 33.394 12.8677ZM40.2739 13.2865C39.6914 13.2865 39.2074 13.3766 38.8219 13.5735C38.4692 13.7376 38.1656 14 37.9606 14.3281C37.7802 14.6317 37.6816 14.9679 37.6816 15.3207C37.6746 15.6109 37.7394 15.8984 37.8703 16.1575C38.0238 16.4333 38.2368 16.6715 38.4939 16.8547C38.8547 17.1014 39.2463 17.3 39.6586 17.4453C40.0605 17.6011 40.3313 17.7242 40.4626 17.8307C40.5938 17.9375 40.6595 18.0441 40.6595 18.159C40.6595 18.3066 40.5692 18.4461 40.438 18.5035C40.2903 18.5773 40.0689 18.6184 39.7571 18.6184C39.429 18.6184 39.1008 18.5773 38.789 18.4954C38.4311 18.4153 38.0879 18.2797 37.7719 18.0935C37.7473 18.077 37.7227 18.0688 37.698 18.0853C37.6734 18.1016 37.6653 18.1344 37.6653 18.159V19.5863C37.6571 19.652 37.698 19.7094 37.7556 19.7421C38.0216 19.8664 38.303 19.9547 38.5923 20.0047C38.9614 20.0785 39.3304 20.1113 39.7077 20.1113C40.2983 20.1113 40.7907 20.0211 41.1926 19.8489C41.5617 19.7012 41.8816 19.447 42.1113 19.1187C42.3263 18.796 42.4378 18.4155 42.4312 18.0278C42.4392 17.7349 42.3744 17.4446 42.2426 17.1829C42.0867 16.9039 41.8652 16.6743 41.5945 16.502C41.1984 16.2533 40.7744 16.0523 40.3313 15.9031C40.1333 15.8212 39.939 15.7309 39.7488 15.6324C39.6422 15.575 39.5437 15.5012 39.4699 15.4109C39.4207 15.3452 39.3879 15.2715 39.3879 15.1977C39.3879 15.1239 39.4126 15.0419 39.4535 14.9762C39.511 14.8942 39.6011 14.8367 39.7077 14.8121C39.8637 14.7712 40.0359 14.7464 40.1999 14.7546C40.5117 14.7546 40.8151 14.7956 41.1187 14.8613C41.3978 14.9187 41.6602 15.009 41.9063 15.1403C41.939 15.1566 41.9801 15.1566 42.0539 15.1403C42.0668 15.1309 42.0772 15.1185 42.0843 15.1042C42.0915 15.0899 42.0951 15.0742 42.095 15.0582V13.7211C42.095 13.6882 42.0867 13.6555 42.0785 13.6227C42.0621 13.5899 42.0293 13.557 41.9965 13.5489C41.7703 13.4563 41.5332 13.3929 41.291 13.3601C40.9542 13.3111 40.6143 13.2866 40.2739 13.2865Z" fill="#31A8FF"/>
</g>
<defs>
<clipPath id="clip0_120_255">
<rect width="19.6875" height="19.6875" fill="white" transform="translate(26.1562 6.125)"/>
</clipPath>
</defs>
</svg>
