<svg width="73" height="32" viewBox="0 0 73 32" fill="none" xmlns="http://www.w3.org/2000/svg">
<g clip-path="url(#clip0_120_314)">
<path d="M28.2779 26.0625L22.5818 24.4813L21.3125 10.2441H35.2604L33.9897 24.479L28.2779 26.0625Z" fill="#264DE4"/>
<path d="M32.902 23.5726L33.9879 11.4081H28.2866V24.8521L32.902 23.5726Z" fill="#2965F1"/>
<path d="M24.2227 16.6885L24.3792 18.4346H28.2867V16.6885H24.2227Z" fill="#F8F8F8"/>
<path d="M23.9082 13.1543L24.0669 14.9004H28.2867V13.1543H28.2806H23.9082Z" fill="#F8F8F8"/>
<path d="M28.2865 21.2234L28.2789 21.2255L26.3342 20.7004L26.2099 19.3077H25.2649H24.457L24.7017 22.0494L28.2785 23.0424L28.2865 23.0401V21.2234Z" fill="#F8F8F8"/>
<path d="M24.5952 6.375H26.7101V7.2594H25.4796V8.1438H26.7101V9.0282H24.5952V6.375Z" fill="#F8F8F8"/>
<path d="M27.1328 6.375H29.2477V7.14404H28.0172V7.29785H29.2477V9.06665H27.1328V8.25916H28.3633V8.10535H27.1328V6.375Z" fill="#F8F8F8"/>
<path d="M29.6709 6.375H31.7858V7.14404H30.5553V7.29785H31.7858V9.06665H29.6709V8.25916H30.9014V8.10535H29.6709V6.375Z" fill="#F8F8F8"/>
<path d="M32.3391 16.6885L32.6544 13.1543H28.2803V14.9004H30.7407L30.5819 16.6885H28.2803V18.4346H30.4304L30.2278 20.6992L28.2803 21.2249V23.0415L31.8599 22.0494L31.8862 21.7544L32.2965 17.1574L32.3391 16.6885Z" fill="#F8F8F8"/>
<path d="M51.7399 10.2441L50.4692 24.479L44.7574 26.0625L39.0613 24.4813L37.792 10.2441H51.7399Z" fill="#E44D26"/>
<path d="M44.7661 24.8521L49.3815 23.5726L50.4674 11.4081H44.7661V24.8521Z" fill="#F16529"/>
<path d="M42.296 14.9004H44.7662V13.1543H44.7601H40.3877L40.4295 13.6228L40.8587 18.4346H44.7662V16.6885H42.4556L42.296 14.9004Z" fill="#F8F8F8"/>
<path d="M42.6894 19.3077H41.7444H40.9365L41.1812 22.0494L44.758 23.0424L44.766 23.0401V21.2234L44.7584 21.2255L42.8137 20.7004L42.6894 19.3077Z" fill="#F8F8F8"/>
<path d="M39.0898 6.375H39.9772V7.25171H40.7889V6.375H41.6763V9.02989H40.789V8.14088H39.9772V9.02989H39.0899L39.0898 6.375Z" fill="#F8F8F8"/>
<path d="M42.8432 7.2554H42.062V6.375H44.5122V7.2554H43.7306V9.02989H42.8432L42.8432 7.2554Z" fill="#F8F8F8"/>
<path d="M44.9009 6.375H45.8262L46.3953 7.30785L46.9639 6.375H47.8895V9.02989H47.0058V7.71398L46.3953 8.65794H46.3801L45.7691 7.71398V9.02989H44.9009V6.375Z" fill="#F8F8F8"/>
<path d="M48.3311 6.375H49.2187V8.15234H50.4666V9.02989H48.3311V6.375Z" fill="#F8F8F8"/>
<path d="M44.7598 18.4346H46.9099L46.7073 20.6992L44.7598 21.2249V23.0415L48.3394 22.0494L48.3657 21.7544L48.776 17.1574L48.8186 16.6885H48.3481H44.7598V18.4346Z" fill="#F8F8F8"/>
<path d="M44.7598 14.8962V14.9004H48.9719H48.9775L49.0125 14.508L49.0921 13.6228L49.1339 13.1543H44.7598V14.2388V14.8962Z" fill="#F8F8F8"/>
</g>
<defs>
<clipPath id="clip0_120_314">
<rect width="30.4274" height="19.6875" fill="white" transform="translate(21.3125 6.375)"/>
</clipPath>
</defs>
</svg>
