<svg width="144" height="62" viewBox="0 0 144 62" fill="none" xmlns="http://www.w3.org/2000/svg">
<g clip-path="url(#clip0_114_221)">
<path d="M59.2853 11.7422H84.7147C88.5704 11.7422 91.6875 14.8593 91.6875 18.7149V43.1601C91.6875 47.0157 88.5704 50.1328 84.7147 50.1328H59.2853C55.4296 50.1328 52.3125 47.0157 52.3125 43.1601V18.7149C52.3125 14.8593 55.4296 11.7422 59.2853 11.7422Z" fill="#001E36"/>
<path d="M66.422 21.5038C65.9298 21.5038 65.4376 21.5038 64.9291 21.5204C64.4203 21.5367 63.9444 21.5367 63.5015 21.5533C63.0585 21.5696 62.6484 21.5696 62.2547 21.5859C61.8772 21.6022 61.6148 21.6022 61.3358 21.6022C61.2211 21.6022 61.1719 21.6677 61.1719 21.7828V38.6648C61.1719 38.8125 61.2374 38.8783 61.3688 38.8783H64.5517C64.6664 38.8617 64.7485 38.7633 64.7319 38.6485V33.3821C65.0435 33.3821 65.2733 33.3821 65.4376 33.3984C65.6016 33.4147 65.864 33.4147 66.2577 33.4147C67.6032 33.4147 68.8337 33.2671 69.9491 32.857C71.0156 32.4633 71.9345 31.7742 72.5906 30.8553C73.2468 29.9368 73.575 28.7719 73.575 27.3608C73.575 26.6225 73.444 25.9172 73.1979 25.2281C72.9373 24.526 72.5287 23.8881 72 23.3578C71.3761 22.7517 70.6251 22.292 69.8015 22.0123C68.8826 21.6677 67.7672 21.5038 66.422 21.5038ZM66.788 24.7353C67.3725 24.7464 67.9416 24.8485 68.4726 25.0638C68.9484 25.2444 69.3422 25.5726 69.6212 25.999C69.8832 26.4401 70.0141 26.9467 69.9986 27.4596C69.9986 28.1812 69.8344 28.7392 69.4898 29.1493C69.1287 29.5594 68.6694 29.8713 68.1446 30.0189C67.5374 30.2158 66.8976 30.3139 66.2577 30.3139H65.3881C65.1912 30.3139 64.9783 30.2976 64.7485 30.2813V24.7688C64.8633 24.7522 65.0931 24.7359 65.4213 24.7525C65.7329 24.7359 66.1101 24.7359 66.5367 24.7359C66.6207 24.7338 66.7047 24.7335 66.788 24.7353ZM80.5478 25.5729C79.3828 25.5729 78.4147 25.7532 77.6439 26.147C76.9385 26.4752 76.3313 27 75.9212 27.6561C75.5604 28.2634 75.3632 28.9358 75.3632 29.6415C75.3491 30.2219 75.4788 30.7968 75.7406 31.3149C76.0475 31.8666 76.4736 32.343 76.9877 32.7094C77.7095 33.2029 78.4926 33.6 79.3173 33.8906C80.1211 34.2022 80.6625 34.4483 80.9252 34.6615C81.1876 34.875 81.319 35.0882 81.319 35.3179C81.319 35.6133 81.1384 35.8923 80.876 36.007C80.5807 36.1547 80.1377 36.2368 79.5142 36.2368C78.858 36.2368 78.2016 36.1547 77.578 35.9907C76.8621 35.8306 76.1757 35.5594 75.5437 35.1869C75.4945 35.154 75.4453 35.1377 75.3961 35.1706C75.3469 35.2032 75.3306 35.2687 75.3306 35.3179V38.1726C75.3143 38.304 75.3961 38.4187 75.5111 38.4843C76.0432 38.7328 76.6059 38.9094 77.1846 39.0094C77.9229 39.157 78.6608 39.2225 79.4154 39.2225C80.5967 39.2225 81.5814 39.0423 82.3852 38.6977C83.1234 38.4024 83.7633 37.8939 84.2226 37.2375C84.6525 36.592 84.8757 35.831 84.8624 35.0556C84.8784 34.4698 84.7488 33.8892 84.4853 33.3658C84.1733 32.8078 83.7304 32.3485 83.189 32.004C82.3969 31.5067 81.5489 31.1046 80.6625 30.8061C80.2666 30.6424 79.878 30.4617 79.4976 30.2647C79.2844 30.15 79.0875 30.0023 78.9398 29.8218C78.8414 29.6904 78.7759 29.5431 78.7759 29.3954C78.7759 29.2477 78.8251 29.0838 78.9069 28.9524C79.022 28.7885 79.2022 28.6734 79.4154 28.6242C79.7273 28.5424 80.0719 28.4928 80.3998 28.5092C81.0233 28.5092 81.6303 28.5913 82.2375 28.7226C82.7955 28.8374 83.3203 29.0179 83.8125 29.2807C83.878 29.3133 83.9602 29.3133 84.1078 29.2807C84.1335 29.2617 84.1544 29.237 84.1686 29.2084C84.1829 29.1798 84.1902 29.1483 84.1899 29.1164V26.4423C84.1899 26.3764 84.1733 26.3109 84.157 26.2454C84.1241 26.1799 84.0586 26.114 83.9931 26.0977C83.5406 25.9127 83.0665 25.7858 82.582 25.7203C81.9084 25.6222 81.2285 25.5731 80.5478 25.5729Z" fill="#31A8FF"/>
</g>
<defs>
<clipPath id="clip0_114_221">
<rect width="39.375" height="39.375" fill="white" transform="translate(52.3125 11.25)"/>
</clipPath>
</defs>
</svg>
