<svg width="256" height="110" viewBox="0 0 256 110" fill="none" xmlns="http://www.w3.org/2000/svg">
<mask id="path-1-inside-1_35_14" fill="white">
<path d="M0 0H256V110H0V0Z"/>
</mask>
<path d="M254 0V110H258V0H254Z" fill="#CEDADA" mask="url(#path-1-inside-1_35_14)"/>
<g clip-path="url(#clip0_35_14)">
<path d="M103.162 19.9048C103.074 19.9081 102.988 19.9309 102.909 19.9717C102.831 20.0126 102.763 20.0703 102.71 20.1408C102.657 20.2113 102.62 20.2927 102.603 20.3791C102.585 20.4655 102.587 20.5548 102.608 20.6404L115.424 72.5141C115.45 72.615 115.501 72.7075 115.573 72.7824C115.645 72.8573 115.736 72.9119 115.835 72.9407C115.935 72.9696 116.041 72.9717 116.142 72.9468C116.243 72.9219 116.336 72.871 116.411 72.799L154.962 35.7119C155.037 35.6398 155.091 35.5491 155.12 35.4491C155.149 35.3491 155.151 35.2433 155.126 35.1423C155.101 35.0412 155.05 34.9485 154.978 34.8735C154.906 34.7984 154.815 34.7437 154.715 34.7147L103.348 19.9275C103.287 19.9102 103.225 19.9025 103.162 19.9048ZM104.006 21.3509L153.399 35.5701L116.33 71.2314L104.006 21.3509Z" fill="#F8F8F8"/>
<path d="M128.851 27.2984C128.701 27.3009 128.557 27.3602 128.449 27.4642L109.183 46.0111C109.108 46.0833 109.053 46.174 109.024 46.274C108.995 46.3741 108.993 46.4799 109.018 46.581C109.043 46.682 109.094 46.7747 109.167 46.8497C109.239 46.9248 109.33 46.9795 109.43 47.0083L135.098 54.4062C135.198 54.435 135.304 54.437 135.405 54.4119C135.506 54.3869 135.599 54.3357 135.673 54.2635C135.748 54.1914 135.803 54.1007 135.832 54.0008C135.861 53.9008 135.863 53.795 135.838 53.6939L129.436 27.7491C129.404 27.6188 129.328 27.5033 129.222 27.4214C129.115 27.3395 128.985 27.2962 128.851 27.2984ZM128.532 29.0312L134.44 52.9829L110.745 46.153L128.532 29.0312Z" fill="#F8F8F8"/>
<path d="M119.288 36.4776C119.201 36.481 119.115 36.504 119.037 36.5448C118.959 36.5857 118.891 36.6433 118.838 36.7136C118.785 36.7839 118.748 36.8651 118.731 36.9513C118.713 37.0375 118.715 37.1265 118.736 37.212L121.914 50.0993C121.939 50.2005 121.99 50.2933 122.062 50.3685C122.134 50.4436 122.225 50.4984 122.325 50.5274C122.425 50.5563 122.531 50.5584 122.632 50.5334C122.734 50.5084 122.826 50.4571 122.901 50.3849L132.472 41.1614C132.547 41.0892 132.602 40.9985 132.631 40.8984C132.66 40.7984 132.662 40.6925 132.637 40.5914C132.612 40.4903 132.56 40.3977 132.488 40.3227C132.416 40.2477 132.325 40.1931 132.225 40.1642L119.475 36.5003C119.414 36.4829 119.351 36.4752 119.288 36.4776ZM120.132 37.923L130.91 41.0196L122.819 48.8166L120.132 37.923Z" fill="#F8F8F8"/>
<path d="M116.118 23.6038C115.968 23.6061 115.824 23.6653 115.716 23.7695L106.145 32.9979C106.07 33.0701 106.015 33.1608 105.987 33.2608C105.958 33.3608 105.956 33.4667 105.981 33.5677C106.006 33.6688 106.057 33.7615 106.129 33.8365C106.201 33.9115 106.292 33.9662 106.392 33.9951L119.143 37.659C119.243 37.6878 119.349 37.6898 119.45 37.6647C119.551 37.6397 119.643 37.5885 119.718 37.5163C119.793 37.4442 119.848 37.3535 119.877 37.2536C119.906 37.1536 119.908 37.0478 119.883 36.9467L116.704 24.0557C116.672 23.9252 116.596 23.8096 116.49 23.7276C116.384 23.6456 116.253 23.6015 116.118 23.6038ZM115.798 25.3384L118.485 36.2357L107.707 33.1385L115.798 25.3384ZM141.623 30.9531C141.473 30.9558 141.33 31.015 141.222 31.1189L131.649 40.343C131.574 40.4153 131.52 40.5061 131.491 40.606C131.463 40.706 131.461 40.8117 131.486 40.9126C131.512 41.0135 131.563 41.106 131.635 41.1808C131.707 41.2556 131.798 41.3102 131.898 41.3389L144.648 45.0029C144.748 45.0317 144.853 45.0336 144.954 45.0086C145.055 44.9835 145.148 44.9324 145.223 44.8602C145.298 44.788 145.353 44.6974 145.381 44.5974C145.41 44.4974 145.412 44.3916 145.387 44.2906L142.209 31.4038C142.176 31.2735 142.101 31.158 141.994 31.0761C141.888 30.9942 141.757 30.9509 141.623 30.9531ZM141.304 32.6872L143.991 43.5802L133.213 40.483L141.304 32.6872ZM122.48 49.3779C122.33 49.3805 122.187 49.4398 122.079 49.5437L112.506 58.7665C112.431 58.8388 112.376 58.9296 112.348 59.0298C112.319 59.1299 112.317 59.2358 112.342 59.3369C112.367 59.438 112.419 59.5307 112.491 59.6056C112.564 59.6805 112.654 59.735 112.755 59.7637L125.509 63.4276C125.609 63.4563 125.715 63.4581 125.816 63.433C125.917 63.4079 126.009 63.3567 126.084 63.2846C126.159 63.2124 126.214 63.1219 126.243 63.0219C126.271 62.922 126.274 62.8163 126.249 62.7153L123.065 49.8286C123.033 49.6983 122.958 49.5827 122.851 49.5008C122.745 49.419 122.614 49.3756 122.48 49.3779ZM122.16 51.1113L124.851 62.0043L114.07 58.9083L122.16 51.1113Z" fill="#F8F8F8"/>
<path d="M104.938 86.1315C104.66 86.7707 104.136 87.0488 103.637 87.0488C103.007 87.0488 102.416 86.5902 102.416 85.6685V82.4018H105.066V81.56H102.416V79.2629L101.482 79.1966V81.56H100.472V82.4018H101.482V85.6685C101.482 87.128 102.544 87.9699 103.651 87.9699C104.461 87.9699 105.304 87.5339 105.775 86.5109L104.938 86.1315ZM112.773 87.0752V84.5534C112.773 82.9925 112.12 81.388 110.502 81.388C109.726 81.388 108.915 81.7448 108.611 82.2962V79.2629L107.68 79.1966V87.798H108.61V83.2922C108.889 82.7414 109.281 82.322 110.044 82.322C111.146 82.322 111.776 83.213 111.776 84.3152V87.798H112.839C112.772 87.5732 112.773 87.3129 112.773 87.0752ZM119.968 82.5823L120.545 81.6785C119.84 81.4009 119.602 81.388 119.364 81.388C118.879 81.388 117.896 81.4673 117.459 82.2962C117.459 82.1507 117.551 81.6785 117.631 81.5594H115.334V82.2563L116.608 82.3226V87.0353H114.677V87.798H119.43C119.364 87.5732 119.364 87.3129 119.364 87.0752V87.0353H117.512V83.4512C117.724 82.5166 118.905 82.0052 119.968 82.5823ZM124.694 81.388C122.908 81.388 121.974 82.5559 121.925 84.5663V85.1312C121.925 86.7842 123.107 87.9699 124.747 87.9699C125.668 87.9699 126.519 87.5732 127.123 86.9162L126.572 86.2334C125.862 86.9162 125.272 87.1152 124.72 87.1152C123.618 87.1152 122.843 86.2991 122.843 85.1306L127.296 85.1042L127.308 84.5663C127.388 82.543 126.467 81.388 124.694 81.388ZM126.325 84.2887H122.856C122.908 83.0054 123.393 82.2035 124.601 82.2035C125.81 82.2035 126.387 82.9526 126.325 84.2887ZM131.916 81.388C130.13 81.388 129.195 82.5559 129.143 84.5663V85.1312C129.143 86.7842 130.324 87.9699 131.968 87.9699C132.416 87.9683 132.858 87.8738 133.267 87.6924C133.676 87.511 134.043 87.2467 134.345 86.9162L133.794 86.2334C133.084 86.9162 132.493 87.1152 131.942 87.1152C130.84 87.1152 130.064 86.2991 130.064 85.1306L134.517 85.1042L134.53 84.5663C134.61 82.543 133.688 81.388 131.916 81.388ZM133.543 84.2887H130.077C130.13 83.0054 130.615 82.2035 131.823 82.2035C133.031 82.2035 133.609 82.9526 133.543 84.2887ZM138.401 87.2736C138.401 87.7187 138.653 87.9699 139.098 87.9699C139.53 87.9699 139.781 87.7187 139.781 87.2736C139.781 86.8376 139.53 86.5902 139.098 86.5902C138.666 86.5902 138.401 86.837 138.401 87.2736ZM147.421 80.4578C147.853 80.4578 148.105 80.2195 148.105 79.7609C148.105 79.3249 147.853 79.0909 147.422 79.0909C146.989 79.0909 146.738 79.3243 146.738 79.7609C146.738 80.2195 146.975 80.4578 147.421 80.4578ZM145.755 81.56V82.2563L147.042 82.3226V87.798C147.042 88.7282 146.452 89.1783 145.821 89.1783C145.305 89.1783 144.781 88.9002 144.507 88.2695L143.678 88.6361C144.15 89.6763 144.992 90.0951 145.808 90.0951C146.91 90.0951 147.973 89.2661 147.973 87.7986L147.986 81.56H145.755ZM153.907 84.2273C152.712 84.002 152.161 83.7116 152.161 83.213C152.161 82.6487 152.844 82.2428 153.801 82.2428C154.484 82.2428 154.943 82.4503 155.455 82.9925L156.045 82.4018C155.587 81.7448 154.749 81.388 153.695 81.388C152.254 81.388 151.279 82.1243 151.279 83.2394C151.279 84.2138 152.028 84.7781 153.827 85.1441C154.917 85.3559 155.247 85.5494 155.247 85.973C155.247 86.5902 154.498 87.128 153.643 87.128C152.911 87.128 152.254 86.7228 151.649 86.013L151.019 86.6565C151.663 87.5075 152.514 87.9705 153.629 87.9705C155.141 87.9705 156.125 87.128 156.125 85.9595C156.125 85.0121 155.481 84.527 153.907 84.2273Z" fill="#F8F8F8"/>
</g>
<defs>
<clipPath id="clip0_35_14">
<rect width="78.5965" height="70" fill="white" transform="translate(89 20)"/>
</clipPath>
</defs>
</svg>
