<svg width="73" height="32" viewBox="0 0 73 32" fill="none" xmlns="http://www.w3.org/2000/svg">
<g clip-path="url(#clip0_120_338)">
<path d="M29.5142 6.09825C29.4894 6.09917 29.4651 6.1056 29.4431 6.11708C29.4211 6.12856 29.402 6.1448 29.3871 6.16462C29.3721 6.18444 29.3618 6.20734 29.3569 6.23165C29.3519 6.25596 29.3525 6.28107 29.3584 6.30515L32.963 20.8946C32.97 20.923 32.9844 20.949 33.0047 20.9701C33.025 20.9911 33.0505 21.0065 33.0785 21.0146C33.1066 21.0227 33.1364 21.0233 33.1648 21.0163C33.1932 21.0093 33.2192 20.995 33.2403 20.9747L44.0828 10.544C44.1039 10.5237 44.1193 10.4982 44.1274 10.4701C44.1355 10.442 44.1361 10.4122 44.1291 10.3838C44.1221 10.3554 44.1077 10.3293 44.0874 10.3082C44.0671 10.2871 44.0416 10.2717 44.0135 10.2635L29.5664 6.10464C29.5494 6.09977 29.5318 6.09762 29.5142 6.09825ZM29.7515 6.50496L43.6433 10.5041L33.2175 20.5339L29.7515 6.50496Z" fill="#F8F8F8"/>
<path d="M36.7395 8.1777C36.6973 8.1784 36.657 8.19506 36.6266 8.22433L31.2079 13.4406C31.1868 13.461 31.1714 13.4865 31.1633 13.5146C31.1552 13.5427 31.1546 13.5725 31.1616 13.6009C31.1687 13.6293 31.1831 13.6554 31.2034 13.6765C31.2237 13.6976 31.2492 13.713 31.2773 13.7211L38.4966 15.8018C38.5247 15.8099 38.5544 15.8104 38.5828 15.8034C38.6113 15.7963 38.6373 15.7819 38.6584 15.7616C38.6795 15.7413 38.6949 15.7159 38.703 15.6877C38.7111 15.6596 38.7117 15.6299 38.7047 15.6014L36.9041 8.30446C36.895 8.2678 36.8738 8.2353 36.8439 8.21228C36.814 8.18925 36.7773 8.17706 36.7395 8.1777ZM36.6497 8.66505L38.3116 15.4015L31.6474 13.4805L36.6497 8.66505Z" fill="#F8F8F8"/>
<path d="M34.0499 10.7593C34.0252 10.7603 34.001 10.7668 33.9791 10.7783C33.9571 10.7897 33.9381 10.8059 33.9232 10.8257C33.9083 10.8455 33.898 10.8683 33.893 10.8926C33.8881 10.9168 33.8886 10.9418 33.8945 10.9659L34.7884 14.5905C34.7954 14.6189 34.8097 14.645 34.83 14.6661C34.8503 14.6873 34.8759 14.7027 34.904 14.7108C34.9322 14.719 34.962 14.7196 34.9904 14.7125C35.0189 14.7055 35.0449 14.6911 35.0661 14.6708L37.7579 12.0767C37.779 12.0563 37.7944 12.0308 37.8025 12.0027C37.8106 11.9745 37.8111 11.9448 37.8041 11.9163C37.797 11.8879 37.7826 11.8619 37.7623 11.8408C37.742 11.8197 37.7164 11.8043 37.6883 11.7962L34.1022 10.7657C34.0852 10.7608 34.0676 10.7587 34.0499 10.7593ZM34.2872 11.1659L37.3184 12.0368L35.0429 14.2297L34.2872 11.1659Z" fill="#F8F8F8"/>
<path d="M33.1583 7.13855C33.1161 7.13921 33.0756 7.15587 33.0452 7.18518L30.3534 9.78065C30.3323 9.80095 30.3169 9.82645 30.3088 9.85459C30.3007 9.88272 30.3001 9.91249 30.3071 9.94091C30.3142 9.96934 30.3286 9.99541 30.3489 10.0165C30.3692 10.0376 30.3947 10.053 30.4228 10.0611L34.009 11.0916C34.0372 11.0997 34.0669 11.1002 34.0953 11.0932C34.1237 11.0862 34.1498 11.0718 34.1709 11.0515C34.192 11.0312 34.2073 11.0057 34.2154 10.9776C34.2236 10.9494 34.2241 10.9197 34.2171 10.8913L33.3231 7.26565C33.314 7.22897 33.2928 7.19643 33.2629 7.17337C33.233 7.15031 33.1961 7.13792 33.1583 7.13855ZM33.0682 7.62642L33.8241 10.6913L30.7925 9.82019L33.0682 7.62642ZM40.3315 9.20556C40.2893 9.20631 40.2491 9.22297 40.2187 9.25219L37.5264 11.8465C37.5054 11.8668 37.4901 11.8923 37.482 11.9204C37.474 11.9486 37.4735 11.9783 37.4806 12.0067C37.4877 12.035 37.5021 12.0611 37.5224 12.0821C37.5427 12.1031 37.5682 12.1185 37.5963 12.1266L41.1822 13.1571C41.2103 13.1651 41.2401 13.1657 41.2685 13.1587C41.2969 13.1516 41.3229 13.1372 41.344 13.1169C41.3651 13.0966 41.3805 13.0711 41.3886 13.043C41.3967 13.0149 41.3973 12.9851 41.3903 12.9567L40.4962 9.33232C40.4872 9.29567 40.4659 9.26317 40.436 9.24015C40.4061 9.21712 40.3692 9.20493 40.3315 9.20556ZM40.2417 9.69326L40.9976 12.7569L37.9662 11.8858L40.2417 9.69326ZM34.9475 14.3875C34.9053 14.3883 34.865 14.4049 34.8347 14.4341L32.1423 17.0281C32.1213 17.0484 32.1059 17.0739 32.0978 17.1021C32.0897 17.1303 32.0892 17.1601 32.0963 17.1885C32.1034 17.2169 32.1178 17.243 32.1382 17.2641C32.1586 17.2851 32.1841 17.3005 32.2123 17.3085L35.7996 18.339C35.8277 18.3471 35.8574 18.3476 35.8858 18.3405C35.9142 18.3335 35.9402 18.3191 35.9613 18.2988C35.9823 18.2785 35.9977 18.253 36.0058 18.2249C36.0139 18.1968 36.0145 18.1671 36.0075 18.1387L35.1122 14.5143C35.1032 14.4776 35.0819 14.4451 35.052 14.4221C35.0221 14.3991 34.9852 14.3869 34.9475 14.3875ZM34.8577 14.875L35.6144 17.9387L32.5822 17.068L34.8577 14.875Z" fill="#F8F8F8"/>
<path d="M30.0138 24.7245C29.9358 24.9042 29.7883 24.9825 29.6481 24.9825C29.4707 24.9825 29.3046 24.8535 29.3046 24.5943V23.6755H30.0499V23.4387H29.3046V22.7927L29.0417 22.774V23.4387H28.7578V23.6755H29.0417V24.5943C29.0417 25.0048 29.3405 25.2415 29.6519 25.2415C29.8798 25.2415 30.1168 25.1189 30.2494 24.8312L30.0138 24.7245ZM32.2175 24.9899V24.2806C32.2175 23.8416 32.0339 23.3904 31.5788 23.3904C31.3605 23.3904 31.1324 23.4907 31.0469 23.6458V22.7927L30.7851 22.774V25.1932H31.0467V23.9259C31.125 23.771 31.2353 23.6531 31.4498 23.6531C31.7598 23.6531 31.9372 23.9036 31.9372 24.2136V25.1932H32.2359C32.2173 25.13 32.2175 25.0567 32.2175 24.9899ZM34.241 23.7263L34.4033 23.4721C34.205 23.394 34.138 23.3904 34.0712 23.3904C33.9348 23.3904 33.6583 23.4127 33.5355 23.6458C33.5355 23.6049 33.5614 23.4721 33.5838 23.4386H32.9378V23.6346L33.2961 23.6532V24.9787H32.753V25.1932H34.0897C34.0712 25.13 34.0712 25.0567 34.0712 24.9899V24.9787H33.5503V23.9706C33.6099 23.7078 33.942 23.5639 34.241 23.7263ZM35.5702 23.3904C35.068 23.3904 34.8052 23.7189 34.7915 24.2843V24.4431C34.7915 24.908 35.1238 25.2415 35.5851 25.2415C35.8443 25.2415 36.0836 25.13 36.2534 24.9452L36.0985 24.7531C35.8988 24.9452 35.7327 25.0011 35.5776 25.0011C35.2676 25.0011 35.0495 24.7716 35.0495 24.443L36.3019 24.4355L36.3056 24.2843C36.328 23.7152 36.0688 23.3904 35.5702 23.3904ZM36.0291 24.2062H35.0533C35.068 23.8453 35.2044 23.6197 35.5441 23.6197C35.884 23.6197 36.0463 23.8304 36.0291 24.2062ZM37.6013 23.3904C37.0991 23.3904 36.8363 23.7189 36.8214 24.2843V24.4431C36.8214 24.908 37.1537 25.2415 37.6162 25.2415C37.742 25.2411 37.8664 25.2145 37.9814 25.1635C38.0965 25.1125 38.1997 25.0381 38.2845 24.9452L38.1296 24.7531C37.9299 24.9452 37.7638 25.0011 37.6087 25.0011C37.2987 25.0011 37.0806 24.7716 37.0806 24.443L38.333 24.4355L38.3366 24.2843C38.3591 23.7152 38.0999 23.3904 37.6013 23.3904ZM38.0589 24.2062H37.0842C37.0991 23.8453 37.2355 23.6197 37.5752 23.6197C37.9151 23.6197 38.0776 23.8304 38.0589 24.2062ZM39.4253 25.0457C39.4253 25.1709 39.4961 25.2415 39.6213 25.2415C39.7427 25.2415 39.8136 25.1709 39.8136 25.0457C39.8136 24.9231 39.7427 24.8535 39.6213 24.8535C39.4998 24.8535 39.4253 24.9229 39.4253 25.0457ZM41.9623 23.1287C42.0838 23.1287 42.1546 23.0617 42.1546 22.9327C42.1546 22.8101 42.0838 22.7443 41.9624 22.7443C41.8408 22.7443 41.7702 22.8099 41.7702 22.9327C41.7702 23.0617 41.8369 23.1287 41.9623 23.1287ZM41.4937 23.4387V23.6346L41.8557 23.6532V25.1932C41.8557 25.4548 41.6896 25.5814 41.5122 25.5814C41.3671 25.5814 41.2197 25.5032 41.1426 25.3258L40.9095 25.4289C41.0423 25.7215 41.2791 25.8392 41.5086 25.8392C41.8186 25.8392 42.1173 25.6061 42.1173 25.1933L42.1211 23.4387H41.4937ZM43.7865 24.1889C43.4504 24.1256 43.2953 24.0439 43.2953 23.9036C43.2953 23.7449 43.4875 23.6308 43.7566 23.6308C43.9488 23.6308 44.0778 23.6892 44.2217 23.8416L44.3878 23.6755C44.2588 23.4907 44.0232 23.3904 43.7269 23.3904C43.3214 23.3904 43.0473 23.5974 43.0473 23.9111C43.0473 24.1851 43.258 24.3438 43.764 24.4468C44.0704 24.5064 44.1633 24.5608 44.1633 24.6799C44.1633 24.8535 43.9526 25.0048 43.712 25.0048C43.5062 25.0048 43.3214 24.8908 43.1514 24.6911L42.9743 24.8721C43.1552 25.1115 43.3946 25.2417 43.7082 25.2417C44.1336 25.2417 44.4101 25.0048 44.4101 24.6761C44.4101 24.4096 44.2291 24.2732 43.7865 24.1889Z" fill="#F8F8F8"/>
</g>
<defs>
<clipPath id="clip0_120_338">
<rect width="22.1053" height="19.6875" fill="white" transform="translate(25.5312 6.125)"/>
</clipPath>
</defs>
</svg>
