<svg width="144" height="63" viewBox="0 0 144 63" fill="none" xmlns="http://www.w3.org/2000/svg">
<g clip-path="url(#clip0_114_192)">
<path d="M58.0289 11.4465C57.9793 11.4483 57.9307 11.4612 57.8868 11.4842C57.8428 11.5071 57.8045 11.5396 57.7746 11.5792C57.7448 11.6189 57.7242 11.6647 57.7142 11.7133C57.7043 11.7619 57.7054 11.8121 57.7173 11.8603L64.9264 41.0392C64.9405 41.096 64.9693 41.148 65.0099 41.1902C65.0505 41.2323 65.1014 41.263 65.1576 41.2792C65.2138 41.2954 65.2732 41.2966 65.33 41.2826C65.3868 41.2686 65.4389 41.24 65.4811 41.1995L87.166 20.338C87.2082 20.2974 87.239 20.2464 87.2552 20.1902C87.2715 20.1339 87.2727 20.0744 87.2586 20.0176C87.2446 19.9607 87.2159 19.9086 87.1753 19.8664C87.1347 19.8242 87.0838 19.7934 87.0275 19.7771L58.1332 11.4593C58.0993 11.4495 58.0641 11.4452 58.0289 11.4465ZM58.5035 12.2599L86.287 20.2582L65.4355 40.3177L58.5035 12.2599Z" fill="#F8F8F8"/>
<path d="M72.4786 15.6054C72.3942 15.6068 72.3135 15.6401 72.2527 15.6987L61.4152 26.1313C61.373 26.1719 61.3423 26.2229 61.3261 26.2792C61.3098 26.3354 61.3087 26.395 61.3228 26.4518C61.3368 26.5087 61.3656 26.5608 61.4062 26.603C61.4468 26.6452 61.4978 26.676 61.5541 26.6922L75.9926 30.8535C76.0489 30.8697 76.1084 30.8708 76.1652 30.8567C76.222 30.8427 76.2741 30.8139 76.3163 30.7733C76.3585 30.7327 76.3892 30.6817 76.4055 30.6255C76.4217 30.5692 76.4229 30.5097 76.4088 30.4529L72.8077 15.8589C72.7896 15.7856 72.7471 15.7206 72.6873 15.6746C72.6274 15.6285 72.5541 15.6041 72.4786 15.6054ZM72.299 16.5801L75.6227 30.0529L62.2943 26.2111L72.299 16.5801Z" fill="#F8F8F8"/>
<path d="M67.0998 20.7687C67.0504 20.7706 67.002 20.7835 66.9581 20.8065C66.9143 20.8295 66.8761 20.8619 66.8463 20.9014C66.8166 20.941 66.796 20.9866 66.7861 21.0351C66.7762 21.0836 66.7771 21.1337 66.789 21.1818L68.5767 28.4309C68.5907 28.4878 68.6195 28.54 68.6601 28.5823C68.7007 28.6246 68.7517 28.6554 68.808 28.6717C68.8643 28.688 68.9239 28.6891 68.9808 28.675C69.0377 28.661 69.0899 28.6322 69.1321 28.5915L74.5158 23.4033C74.558 23.3627 74.5887 23.3117 74.6049 23.2554C74.6211 23.1991 74.6222 23.1395 74.6081 23.0827C74.594 23.0258 74.5652 22.9737 74.5246 22.9315C74.4839 22.8893 74.4329 22.8586 74.3766 22.8424L67.2045 20.7814C67.1705 20.7717 67.1352 20.7673 67.0998 20.7687ZM67.5744 21.5817L73.6368 23.3235L69.0858 27.7094L67.5744 21.5817Z" fill="#F8F8F8"/>
<path d="M65.3166 13.5271C65.2321 13.5284 65.1513 13.5617 65.0904 13.6204L59.7067 18.8113C59.6646 18.8519 59.6338 18.9029 59.6176 18.9592C59.6013 19.0154 59.6002 19.075 59.6143 19.1318C59.6283 19.1887 59.6571 19.2408 59.6977 19.283C59.7383 19.3252 59.7893 19.356 59.8456 19.3722L67.0181 21.4332C67.0743 21.4494 67.1338 21.4505 67.1906 21.4364C67.2475 21.4223 67.2996 21.3935 67.3417 21.3529C67.3839 21.3123 67.4147 21.2614 67.4309 21.2051C67.4471 21.1489 67.4483 21.0894 67.4343 21.0325L65.6461 13.7813C65.6281 13.7079 65.5857 13.6429 65.5258 13.5967C65.4659 13.5506 65.3922 13.5258 65.3166 13.5271ZM65.1363 14.5028L66.6481 20.6326L60.5851 18.8904L65.1363 14.5028ZM79.663 17.6611C79.5787 17.6626 79.4981 17.6959 79.4374 17.7544L74.0527 22.9429C74.0107 22.9836 73.9801 23.0346 73.9641 23.0909C73.948 23.1471 73.947 23.2066 73.9612 23.2633C73.9754 23.3201 74.0042 23.3721 74.0448 23.4142C74.0854 23.4563 74.1364 23.487 74.1926 23.5031L81.3644 25.5641C81.4206 25.5803 81.4801 25.5814 81.537 25.5673C81.5938 25.5532 81.6459 25.5244 81.6881 25.4838C81.7302 25.4432 81.761 25.3923 81.7772 25.336C81.7935 25.2798 81.7946 25.2203 81.7806 25.1634L79.9925 17.9146C79.9743 17.8413 79.9319 17.7763 79.872 17.7303C79.8122 17.6842 79.7385 17.6599 79.663 17.6611ZM79.4834 18.6365L80.9951 24.7638L74.9324 23.0217L79.4834 18.6365ZM68.8949 28.025C68.8107 28.0265 68.7301 28.0598 68.6694 28.1183L63.2847 33.3061C63.2425 33.3468 63.2118 33.3979 63.1956 33.4542C63.1795 33.5105 63.1784 33.5701 63.1926 33.627C63.2068 33.6839 63.2357 33.736 63.2764 33.7781C63.3171 33.8203 63.3682 33.8509 63.4246 33.8671L70.5991 35.928C70.6553 35.9441 70.7148 35.9452 70.7716 35.9311C70.8283 35.9169 70.8804 35.8881 70.9225 35.8476C70.9646 35.807 70.9954 35.756 71.0116 35.6998C71.0278 35.6436 71.029 35.5842 71.015 35.5274L69.2244 28.2786C69.2063 28.2053 69.1638 28.1403 69.104 28.0942C69.0441 28.0482 68.9704 28.0238 68.8949 28.025ZM68.7153 29.0001L70.2288 35.1274L64.1644 33.3859L68.7153 29.0001Z" fill="#F8F8F8"/>
<path d="M59.0277 48.6989C58.8716 49.0585 58.5766 49.215 58.2961 49.215C57.9414 49.215 57.6091 48.957 57.6091 48.4385V46.601H59.0999V46.1275H57.6091V44.8354L57.0835 44.7981V46.1275H56.5156V46.601H57.0835V48.4385C57.0835 49.2595 57.681 49.7331 58.3037 49.7331C58.7597 49.7331 59.2335 49.4878 59.4988 48.9124L59.0277 48.6989ZM63.4349 49.2298V47.8113C63.4349 46.9333 63.0678 46.0308 62.1576 46.0308C61.7211 46.0308 61.2648 46.2314 61.0938 46.5416V44.8354L60.5702 44.7981V49.6363H61.0935V47.1018C61.25 46.792 61.4707 46.5561 61.8996 46.5561C62.5196 46.5561 62.8743 47.0573 62.8743 47.6773V49.6363H63.4719C63.4346 49.5099 63.4349 49.3635 63.4349 49.2298ZM67.4819 46.7026L67.8066 46.1941C67.4101 46.038 67.2761 46.0308 67.1424 46.0308C66.8695 46.0308 66.3165 46.0753 66.071 46.5416C66.071 46.4597 66.1228 46.1941 66.1677 46.1271H64.8756V46.5192L65.5923 46.5565V49.2074H64.506V49.6363H67.1793C67.1424 49.5099 67.1424 49.3635 67.1424 49.2298V49.2074H66.1007V47.1913C66.2198 46.6656 66.884 46.3779 67.4819 46.7026ZM70.1404 46.0308C69.136 46.0308 68.6103 46.6877 68.583 47.8185V48.1363C68.583 49.0661 69.2476 49.7331 70.1701 49.7331C70.6886 49.7331 71.1673 49.5099 71.5068 49.1404L71.197 48.7563C70.7977 49.1404 70.4654 49.2523 70.1553 49.2523C69.5353 49.2523 69.099 48.7932 69.099 48.1359L71.6038 48.1211L71.6111 47.8185C71.656 46.6805 71.1376 46.0308 70.1404 46.0308ZM71.0581 47.6624H69.1066C69.136 46.9405 69.4089 46.4895 70.0883 46.4895C70.768 46.4895 71.0927 46.9108 71.0581 47.6624ZM74.2026 46.0308C73.1982 46.0308 72.6725 46.6877 72.6428 47.8185V48.1363C72.6428 49.0661 73.3073 49.7331 74.2323 49.7331C74.484 49.7321 74.7328 49.679 74.9628 49.577C75.1929 49.4749 75.3993 49.3263 75.569 49.1404L75.2592 48.7563C74.8599 49.1404 74.5276 49.2523 74.2175 49.2523C73.5975 49.2523 73.1612 48.7932 73.1612 48.1359L75.666 48.1211L75.6733 47.8185C75.7182 46.6805 75.1998 46.0308 74.2026 46.0308ZM75.1179 47.6624H73.1685C73.1982 46.9405 73.4711 46.4895 74.1504 46.4895C74.8302 46.4895 75.1552 46.9108 75.1179 47.6624ZM77.8507 49.3414C77.8507 49.5918 77.9923 49.7331 78.2427 49.7331C78.4855 49.7331 78.6271 49.5918 78.6271 49.3414C78.6271 49.0961 78.4855 48.957 78.2427 48.957C77.9995 48.957 77.8507 49.0958 77.8507 49.3414ZM82.9245 45.5075C83.1677 45.5075 83.3093 45.3735 83.3093 45.1155C83.3093 44.8702 83.1677 44.7386 82.9249 44.7386C82.6817 44.7386 82.5404 44.8699 82.5404 45.1155C82.5404 45.3735 82.6737 45.5075 82.9245 45.5075ZM81.9875 46.1275V46.5192L82.7114 46.5565V49.6363C82.7114 50.1596 82.3791 50.4128 82.0244 50.4128C81.7343 50.4128 81.4393 50.2563 81.2853 49.9016L80.819 50.1078C81.0846 50.6929 81.5581 50.9285 82.0172 50.9285C82.6371 50.9285 83.2347 50.4622 83.2347 49.6367L83.2423 46.1275H81.9875ZM86.5729 47.6279C85.9008 47.5011 85.5906 47.3377 85.5906 47.0573C85.5906 46.7399 85.975 46.5116 86.5132 46.5116C86.8976 46.5116 87.1556 46.6283 87.4433 46.9333L87.7756 46.601C87.5176 46.2314 87.0464 46.0308 86.4538 46.0308C85.6428 46.0308 85.0946 46.4449 85.0946 47.0721C85.0946 47.6203 85.516 47.9377 86.528 48.1435C87.1407 48.2627 87.3266 48.3715 87.3266 48.6098C87.3266 48.957 86.9052 49.2595 86.424 49.2595C86.0123 49.2595 85.6428 49.0316 85.3029 48.6323L84.9485 48.9943C85.3105 49.473 85.7892 49.7334 86.4164 49.7334C87.2672 49.7334 87.8201 49.2595 87.8201 48.6022C87.8201 48.0693 87.4582 47.7964 86.5729 47.6279Z" fill="#F8F8F8"/>
</g>
<defs>
<clipPath id="clip0_114_192">
<rect width="44.2105" height="39.375" fill="white" transform="translate(50.0625 11.5)"/>
</clipPath>
</defs>
</svg>
