<svg width="256" height="110" viewBox="0 0 256 110" fill="none" xmlns="http://www.w3.org/2000/svg">
<g clip-path="url(#clip0_44_34)">
<path d="M70.6327 52.6366C70.9805 49.9379 72.4183 47.6275 74.5083 45.9723C76.5548 44.3605 79.1665 43.4475 81.9987 43.491C84.7843 43.5779 87.3122 44.6245 89.0978 46.3232C90.9269 48.0653 92.0604 50.4597 92.017 53.1614C91.9735 55.947 90.7095 58.4749 88.663 60.304C86.5731 62.1766 83.7409 63.3536 80.6075 63.2666C77.5144 63.1797 74.8158 61.9157 72.9866 59.9127C71.1979 57.9935 70.2818 55.3818 70.6327 52.6366Z" fill="white"/>
<path d="M74.7692 52.9843C74.8561 51.3291 75.6822 49.8913 76.9026 48.8478C78.0796 47.8448 79.6882 47.2361 81.4739 47.2361C83.2161 47.2361 84.8278 47.8448 86.0451 48.8478C87.2656 49.8944 88.0482 51.3291 88.1786 52.9843C88.2656 54.683 87.6134 56.2513 86.393 57.4251C85.1725 58.6021 83.4303 59.3412 81.5143 59.3412C79.5547 59.3412 77.856 58.6021 76.6356 57.4251C75.3779 56.2513 74.6822 54.683 74.7692 52.9843Z" fill="#0D528A"/>
<path d="M64.1857 56.3383C64.1857 56.9904 64.4031 58.2543 64.7075 59.2139C65.3596 61.3039 66.4496 63.22 67.9744 64.8752C69.5427 66.6174 71.4587 68.0117 73.7226 69.0117C76.0735 70.0582 78.6013 70.5799 81.2565 70.5799C83.9117 70.5799 86.4395 70.0582 88.7904 68.9682C91.0108 67.9651 92.9703 66.5739 94.5386 64.8317C96.0634 63.133 97.1503 61.2169 97.8055 59.127C98.1533 58.0804 98.3273 57.037 98.4142 55.947C98.5012 54.9004 98.4577 53.857 98.3273 52.8104C98.0229 50.7639 97.3242 48.8479 96.2373 47.1057C95.2342 45.494 93.9734 44.0996 92.4051 42.8823L76.9896 31.038L76.9461 30.9945C75.943 30.2119 74.2474 30.2119 73.114 30.9945C71.9805 31.7771 71.85 33.0845 72.8531 33.9137L79.2969 39.1402H59.658H59.6145C58.0027 39.1402 56.4345 40.1867 56.1301 41.5345C55.8258 42.8854 56.9127 44.0592 58.6114 44.0592H68.5396L50.7732 57.6891L50.6863 57.7326C49.031 58.9965 48.4658 61.13 49.5093 62.4809C50.5993 63.8752 52.8632 63.8752 54.5619 62.4809L64.2292 54.5557C64.3162 54.6396 64.1423 55.6861 64.1857 56.3383ZM89.0512 59.9095C87.0482 61.956 84.2595 63.0895 81.2565 63.0895C78.2069 63.0895 75.4213 61.956 73.4183 59.9095C72.4587 58.9065 71.7196 57.7761 71.2848 56.5556C70.8501 55.3787 70.6762 54.1178 70.8066 52.8104C70.8935 51.5465 71.2848 50.3727 71.8966 49.2826C72.4618 48.2361 73.291 47.2796 74.2909 46.4504C76.2505 44.8822 78.6883 44.0127 81.3031 44.0127C83.8713 44.0127 86.3557 44.8387 88.3152 46.4504C89.3183 47.233 90.1009 48.1926 90.6661 49.2826C91.2747 50.3727 91.6256 51.5465 91.7561 52.8104C91.8865 54.0744 91.7126 55.3352 91.2778 56.5556C90.7499 57.7761 90.0108 58.9065 89.0512 59.9095Z" fill="#F5792A"/>
<path d="M180.548 52.9843C180.678 51.3291 181.985 50.2857 183.945 50.2857C185.905 50.2857 187.212 51.3322 187.342 52.9843H180.548ZM187.122 57.0774C186.6 58.2978 185.423 59.0369 183.811 59.0369C181.808 59.0369 180.458 57.773 180.371 55.77H191.954C191.954 55.5526 191.954 55.3787 191.954 55.2048C191.954 50.2391 189.035 47.41 183.811 47.41C178.715 47.41 175.669 50.2422 175.669 54.683C175.669 59.1239 178.805 61.9561 183.811 61.9561C186.818 61.9561 189.168 60.9095 190.606 59.0804L187.122 57.0774Z" fill="#0D528A"/>
<path d="M129.118 52.9843C129.292 51.3291 130.556 50.2857 132.515 50.2857C134.475 50.2857 135.782 51.3322 135.913 52.9843H129.118ZM135.736 57.0774C135.214 58.2978 134.037 59.0369 132.425 59.0369C130.422 59.0369 129.071 57.773 128.984 55.77H140.568C140.568 55.5526 140.568 55.3787 140.568 55.2048C140.568 50.2391 137.649 47.41 132.425 47.41C127.329 47.41 124.283 50.2422 124.283 54.683C124.283 59.1239 127.419 61.9561 132.425 61.9561C135.431 61.9561 137.782 60.9095 139.264 59.0804L135.736 57.0774Z" fill="#0D528A"/>
<path d="M123.236 44.4071H119.056V61.5213H123.236V44.4071Z" fill="#0D528A"/>
<path d="M141.614 48.9783H145.838V49.9814C147.319 48.4131 149.105 47.587 151.108 47.587C153.415 47.587 155.201 48.3696 156.073 49.764C156.813 50.8975 156.9 52.2452 156.9 54.0309V61.5213H152.676V54.947C152.676 52.2049 152.111 50.9409 149.713 50.9409C147.276 50.9409 145.794 52.3788 145.794 54.8166V61.5244H141.571L141.614 48.9783Z" fill="#0D528A"/>
<path d="M170.442 54.9004C170.442 57.2512 168.874 58.776 166.48 58.776C164.042 58.776 162.474 57.2947 162.474 54.9439C162.474 52.5496 163.999 51.0682 166.48 51.0682C168.877 51.0248 170.442 52.5496 170.442 54.9004ZM170.442 49.5435C169.396 48.41 167.831 47.8013 165.694 47.8013C161.079 47.8013 157.943 50.6335 157.943 54.9004C157.943 59.0804 161.079 61.9995 165.607 61.9995C167.697 61.9995 169.222 61.4778 170.442 60.3008V61.5647H174.666V43.3605L170.442 44.4505V49.5435Z" fill="#0D528A"/>
<path d="M109.476 51.0248C111.914 51.0248 113.438 52.5061 113.438 54.9004C113.438 57.2513 111.87 58.7326 109.476 58.7326C107.038 58.7326 105.513 57.2078 105.513 54.8569C105.513 52.5496 107.082 51.0248 109.476 51.0248ZM105.513 44.407L101.29 43.317V61.5213H105.513V60.2574C106.69 61.4343 108.212 61.956 110.305 61.956C114.876 61.956 117.969 59.0369 117.969 54.8569C117.969 50.59 114.833 47.7578 110.218 47.7578C108.085 47.7578 106.56 48.3665 105.47 49.5V44.4039" fill="#0D528A"/>
<path d="M193.044 61.5212V48.9783H197.268V49.7608C198.531 48.236 199.836 47.4969 201.361 47.4969C201.665 47.4969 202.056 47.5404 202.537 47.5839V51.1552C202.146 51.1117 201.668 51.1117 201.187 51.1117C198.749 51.1117 197.224 52.7234 197.224 55.4656V61.5181L193.044 61.5212Z" fill="#0D528A"/>
<path d="M207.981 47.497H207.677V46.3635V45.9722L207.59 46.2765L207.199 47.497H206.894L206.503 46.2765L206.416 45.9722L206.46 46.3635V47.497H206.155V45.6244H206.59L207.068 47.1057L207.503 45.6244H207.938V47.497H207.981ZM205.413 47.497H205.109V45.9287H204.5V45.6679H206.025V45.9287H205.416V47.497" fill="#0D528A"/>
</g>
<defs>
<clipPath id="clip0_44_34">
<rect width="159" height="64" fill="white" transform="translate(49 23)"/>
</clipPath>
</defs>
</svg>
