<svg width="73" height="31" viewBox="0 0 73 31" fill="none" xmlns="http://www.w3.org/2000/svg">
<g clip-path="url(#clip0_120_268)">
<path d="M19.8655 14.804C19.9634 14.045 20.3677 13.3952 20.9556 12.9297C21.5311 12.4764 22.2657 12.2196 23.0622 12.2318C23.8457 12.2563 24.5566 12.5506 25.0588 13.0284C25.5733 13.5183 25.8921 14.1917 25.8799 14.9516C25.8676 15.7351 25.5121 16.446 24.9366 16.9605C24.3488 17.4871 23.5522 17.8182 22.6709 17.7937C21.801 17.7692 21.042 17.4138 20.5276 16.8504C20.0245 16.3106 19.7668 15.5761 19.8655 14.804Z" fill="#F8F8F8"/>
<path d="M21.0289 14.9018C21.0534 14.4363 21.2857 14.0319 21.6289 13.7385C21.96 13.4563 22.4124 13.2852 22.9146 13.2852C23.4046 13.2852 23.8579 13.4563 24.2003 13.7385C24.5435 14.0328 24.7636 14.4363 24.8003 14.9018C24.8248 15.3796 24.6413 15.8207 24.2981 16.1508C23.9548 16.4818 23.4649 16.6897 22.926 16.6897C22.3748 16.6897 21.8971 16.4818 21.5538 16.1508C21.2001 15.8207 21.0044 15.3796 21.0289 14.9018Z" fill="#0D528A"/>
<path d="M18.0523 15.8451C18.0523 16.0285 18.1134 16.384 18.199 16.6539C18.3824 17.2417 18.689 17.7806 19.1179 18.2461C19.5589 18.7361 20.0978 19.1283 20.7345 19.4095C21.3957 19.7039 22.1067 19.8506 22.8534 19.8506C23.6002 19.8506 24.3112 19.7039 24.9724 19.3973C25.5968 19.1152 26.148 18.7239 26.589 18.2339C27.0179 17.7562 27.3236 17.2173 27.5079 16.6294C27.6057 16.3351 27.6546 16.0416 27.6791 15.7351C27.7035 15.4407 27.6913 15.1473 27.6546 14.8529C27.569 14.2773 27.3725 13.7385 27.0668 13.2485C26.7847 12.7952 26.4301 12.403 25.989 12.0606L21.6534 8.72943L21.6412 8.7172C21.359 8.4971 20.8822 8.4971 20.5634 8.7172C20.2446 8.9373 20.2079 9.30501 20.49 9.53821L22.3023 11.0082H16.7789H16.7666C16.3133 11.0082 15.8723 11.3025 15.7867 11.6816C15.7011 12.0615 16.0068 12.3916 16.4845 12.3916H19.2768L14.28 16.2251L14.2556 16.2373C13.79 16.5928 13.6311 17.1928 13.9245 17.5727C14.2311 17.9649 14.8678 17.9649 15.3456 17.5727L18.0645 15.3438C18.089 15.3674 18.0401 15.6617 18.0523 15.8451ZM25.0457 16.8495C24.4824 17.4251 23.698 17.7439 22.8534 17.7439C21.9958 17.7439 21.2123 17.4251 20.649 16.8495C20.3791 16.5674 20.1712 16.2495 20.0489 15.9063C19.9266 15.5752 19.8777 15.2206 19.9144 14.8529C19.9389 14.4974 20.0489 14.1673 20.221 13.8607C20.3799 13.5664 20.6131 13.2974 20.8944 13.0642C21.4455 12.6231 22.1311 12.3785 22.8666 12.3785C23.5889 12.3785 24.2876 12.6109 24.8387 13.0642C25.1208 13.2843 25.3409 13.5542 25.4999 13.8607C25.6711 14.1673 25.7698 14.4974 25.8065 14.8529C25.8431 15.2084 25.7942 15.563 25.672 15.9063C25.5235 16.2495 25.3156 16.5674 25.0457 16.8495Z" fill="#F5792A"/>
<path d="M50.7789 14.9018C50.8156 14.4363 51.1833 14.1428 51.7344 14.1428C52.2855 14.1428 52.6532 14.4372 52.6899 14.9018H50.7789ZM52.6279 16.053C52.4811 16.3962 52.1501 16.6041 51.6968 16.6041C51.1335 16.6041 50.7535 16.2486 50.7291 15.6853H53.9869C53.9869 15.6241 53.9869 15.5752 53.9869 15.5263C53.9869 14.1297 53.1659 13.334 51.6968 13.334C50.2636 13.334 49.4067 14.1306 49.4067 15.3796C49.4067 16.6286 50.2889 17.4251 51.6968 17.4251C52.5423 17.4251 53.2035 17.1308 53.6079 16.6163L52.6279 16.053Z" fill="#0D528A"/>
<path d="M36.3145 14.9018C36.3634 14.4363 36.7189 14.1428 37.27 14.1428C37.8211 14.1428 38.1888 14.4372 38.2255 14.9018H36.3145ZM38.1757 16.053C38.029 16.3962 37.698 16.6041 37.2447 16.6041C36.6813 16.6041 36.3014 16.2486 36.2769 15.6853H39.5348C39.5348 15.6241 39.5348 15.5752 39.5348 15.5263C39.5348 14.1297 38.7138 13.334 37.2447 13.334C35.8114 13.334 34.9546 14.1306 34.9546 15.3796C34.9546 16.6286 35.8367 17.4251 37.2447 17.4251C38.0901 17.4251 38.7513 17.1308 39.1679 16.6163L38.1757 16.053Z" fill="#0D528A"/>
<path d="M34.6605 12.4894H33.4849V17.3028H34.6605V12.4894Z" fill="#0D528A"/>
<path d="M39.8291 13.7751H41.017V14.0573C41.4336 13.6162 41.9358 13.3839 42.4991 13.3839C43.1481 13.3839 43.6503 13.604 43.8957 13.9961C44.1036 14.3149 44.1281 14.694 44.1281 15.1962V17.3029H42.9402V15.4538C42.9402 14.6826 42.7813 14.3271 42.107 14.3271C41.4214 14.3271 41.0047 14.7315 41.0047 15.4172V17.3037H39.8169L39.8291 13.7751Z" fill="#0D528A"/>
<path d="M47.9369 15.4407C47.9369 16.1019 47.4958 16.5308 46.8224 16.5308C46.1368 16.5308 45.6957 16.1141 45.6957 15.453C45.6957 14.7796 46.1245 14.3629 46.8224 14.3629C47.4967 14.3507 47.9369 14.7796 47.9369 15.4407ZM47.9369 13.9341C47.6425 13.6153 47.2023 13.4441 46.6014 13.4441C45.3035 13.4441 44.4214 14.2407 44.4214 15.4407C44.4214 16.6163 45.3035 17.4374 46.577 17.4374C47.1648 17.4374 47.5936 17.2906 47.9369 16.9596V17.3151H49.1247V12.1951L47.9369 12.5017V13.9341Z" fill="#0D528A"/>
<path d="M30.7901 14.3507C31.4757 14.3507 31.9046 14.7674 31.9046 15.4408C31.9046 16.1019 31.4635 16.5185 30.7901 16.5185C30.1045 16.5185 29.6756 16.0897 29.6756 15.4285C29.6756 14.7796 30.1167 14.3507 30.7901 14.3507ZM29.6756 12.4895L28.4878 12.1829V17.3029H29.6756V16.9474C30.0067 17.2784 30.4346 17.4251 31.0233 17.4251C32.309 17.4251 33.1789 16.6041 33.1789 15.4285C33.1789 14.2285 32.2967 13.4319 30.9989 13.4319C30.3988 13.4319 29.97 13.6031 29.6634 13.9219V12.4886" fill="#0D528A"/>
<path d="M54.2939 17.3029V13.7751H55.4818V13.9952C55.8373 13.5664 56.2041 13.3585 56.6329 13.3585C56.7185 13.3585 56.8286 13.3707 56.964 13.383V14.3874C56.8539 14.3752 56.7194 14.3752 56.584 14.3752C55.8984 14.3752 55.4696 14.8285 55.4696 15.5997V17.302L54.2939 17.3029Z" fill="#0D528A"/>
<path d="M58.4947 13.3585H58.4091V13.0397V12.9297L58.3847 13.0153L58.2746 13.3585H58.189L58.079 13.0153L58.0545 12.9297L58.0667 13.0397V13.3585H57.9812V12.8318H58.1034L58.2379 13.2485L58.3602 12.8318H58.4825V13.3585H58.4947ZM57.7724 13.3585H57.6868V12.9174H57.5156V12.8441H57.9445V12.9174H57.7733V13.3585" fill="#0D528A"/>
</g>
<defs>
<clipPath id="clip0_120_268">
<rect width="44.7188" height="18" fill="white" transform="translate(13.7812 6.46875)"/>
</clipPath>
</defs>
</svg>
