<svg width="144" height="62" viewBox="0 0 144 62" fill="none" xmlns="http://www.w3.org/2000/svg">
<g clip-path="url(#clip0_114_234)">
<path d="M39.7311 29.608C39.9267 28.09 40.7355 26.7904 41.9111 25.8593C43.0623 24.9527 44.5313 24.4391 46.1244 24.4636C47.6914 24.5125 49.1133 25.1012 50.1177 26.0567C51.1466 27.0367 51.7842 28.3835 51.7597 29.9032C51.7353 31.4701 51.0243 32.892 49.8731 33.9209C48.6975 34.9743 47.1044 35.6363 45.3419 35.5874C43.602 35.5385 42.084 34.8275 41.0552 33.7008C40.049 32.6213 39.5337 31.1522 39.7311 29.608Z" fill="white"/>
<path d="M42.0578 29.8037C42.1067 28.8726 42.5714 28.0638 43.2579 27.4769C43.9199 26.9127 44.8248 26.5703 45.8292 26.5703C46.8092 26.5703 47.7158 26.9127 48.4005 27.4769C49.087 28.0656 49.5272 28.8726 49.6006 29.8037C49.6495 30.7592 49.2827 31.6413 48.5962 32.3016C47.9097 32.9637 46.9297 33.3794 45.8519 33.3794C44.7497 33.3794 43.7942 32.9637 43.1076 32.3016C42.4002 31.6413 42.0089 30.7592 42.0578 29.8037Z" fill="#0D528A"/>
<path d="M36.1046 31.6902C36.1046 32.0571 36.2269 32.768 36.3981 33.3078C36.7649 34.4834 37.378 35.5612 38.2357 36.4923C39.1179 37.4722 40.1957 38.2566 41.4691 38.819C42.7914 39.4077 44.2134 39.7012 45.7069 39.7012C47.2004 39.7012 48.6224 39.4077 49.9447 38.7946C51.1937 38.2304 52.2959 37.4478 53.1781 36.4678C54.0358 35.5123 54.6472 34.4345 55.0157 33.2589C55.2114 32.6702 55.3092 32.0833 55.3581 31.4701C55.407 30.8815 55.3826 30.2945 55.3092 29.7059C55.138 28.5547 54.745 27.4769 54.1336 26.4969C53.5694 25.5903 52.8602 24.806 51.978 24.1212L43.3068 17.4589L43.2823 17.4344C42.7181 16.9942 41.7643 16.9942 41.1267 17.4344C40.4891 17.8746 40.4158 18.61 40.98 19.0764L44.6047 22.0163H33.5577H33.5333C32.6267 22.0163 31.7445 22.605 31.5733 23.3631C31.4021 24.123 32.0135 24.7833 32.969 24.7833H38.5536L28.5601 32.4501L28.5111 32.4746C27.5801 33.1855 27.2622 34.3856 27.8491 35.1455C28.4622 35.9298 29.7357 35.9298 30.6912 35.1455L36.1291 30.6876C36.178 30.7347 36.0801 31.3234 36.1046 31.6902ZM50.0914 33.6991C48.9647 34.8503 47.3961 35.4878 45.7069 35.4878C43.9915 35.4878 42.4246 34.8503 41.2979 33.6991C40.7581 33.1349 40.3424 32.499 40.0978 31.8125C39.8533 31.1505 39.7555 30.4413 39.8288 29.7059C39.8777 28.9949 40.0978 28.3346 40.442 27.7215C40.7599 27.1328 41.2263 26.5948 41.7888 26.1284C42.891 25.2462 44.2623 24.7571 45.7331 24.7571C47.1777 24.7571 48.5752 25.2218 49.6774 26.1284C50.2417 26.5686 50.6819 27.1083 50.9998 27.7215C51.3422 28.3346 51.5396 28.9949 51.6129 29.7059C51.6863 30.4168 51.5885 31.126 51.3439 31.8125C51.0469 32.499 50.6312 33.1349 50.0914 33.6991Z" fill="#F5792A"/>
<path d="M101.558 29.8036C101.632 28.8726 102.367 28.2857 103.469 28.2857C104.572 28.2857 105.307 28.8743 105.38 29.8036H101.558ZM105.256 32.106C104.963 32.7925 104.301 33.2082 103.394 33.2082C102.267 33.2082 101.508 32.4972 101.459 31.3705H107.974C107.974 31.2483 107.974 31.1504 107.974 31.0526C107.974 28.2594 106.332 26.6681 103.394 26.6681C100.528 26.6681 98.814 28.2612 98.814 30.7592C98.814 33.2571 100.578 34.8502 103.394 34.8502C105.085 34.8502 106.407 34.2615 107.216 33.2327L105.256 32.106Z" fill="#0D528A"/>
<path d="M72.629 29.8036C72.7268 28.8726 73.4378 28.2857 74.54 28.2857C75.6423 28.2857 76.3777 28.8743 76.451 29.8036H72.629ZM76.3515 32.106C76.058 32.7925 75.396 33.2082 74.4894 33.2082C73.3627 33.2082 72.6028 32.4972 72.5539 31.3705H79.0695C79.0695 31.2483 79.0695 31.1504 79.0695 31.0526C79.0695 28.2594 77.4275 26.6681 74.4894 26.6681C71.6228 26.6681 69.9092 28.2612 69.9092 30.7592C69.9092 33.2571 71.6735 34.8502 74.4894 34.8502C76.1803 34.8502 77.5026 34.2615 78.3359 33.2327L76.3515 32.106Z" fill="#0D528A"/>
<path d="M69.3205 24.9789H66.9692V34.6056H69.3205V24.9789Z" fill="#0D528A"/>
<path d="M79.6582 27.5503H82.0339V28.1145C82.8672 27.2324 83.8716 26.7677 84.9983 26.7677C86.2962 26.7677 87.3006 27.2079 87.7915 27.9922C88.2072 28.6298 88.2561 29.3879 88.2561 30.3924V34.6057H85.8804V30.9077C85.8804 29.3652 85.5625 28.6543 84.214 28.6543C82.8427 28.6543 82.0095 29.4631 82.0095 30.8343V34.6075H79.6338L79.6582 27.5503Z" fill="#0D528A"/>
<path d="M95.8742 30.8815C95.8742 32.2038 94.9921 33.0615 93.6453 33.0615C92.274 33.0615 91.3919 32.2283 91.3919 30.9059C91.3919 29.5591 92.2496 28.7259 93.6453 28.7259C94.9938 28.7014 95.8742 29.5591 95.8742 30.8815ZM95.8742 27.8682C95.2856 27.2306 94.4052 26.8882 93.2033 26.8882C90.6076 26.8882 88.8433 28.4813 88.8433 30.8815C88.8433 33.2327 90.6076 34.8747 93.1544 34.8747C94.33 34.8747 95.1877 34.5812 95.8742 33.9192V34.6302H98.2499V24.3903L95.8742 25.0034V27.8682Z" fill="#0D528A"/>
<path d="M61.5802 28.7015C62.9515 28.7015 63.8092 29.5347 63.8092 30.8815C63.8092 32.2039 62.927 33.0371 61.5802 33.0371C60.209 33.0371 59.3513 32.1794 59.3513 30.8571C59.3513 29.5592 60.2334 28.7015 61.5802 28.7015ZM59.3513 24.979L56.9756 24.3658V34.6057H59.3513V33.8948C60.0133 34.5568 60.8693 34.8503 62.0466 34.8503C64.618 34.8503 66.3578 33.2083 66.3578 30.8571C66.3578 28.4569 64.5935 26.8638 61.9977 26.8638C60.7976 26.8638 59.9399 27.2062 59.3268 27.8438V24.9772" fill="#0D528A"/>
<path d="M108.587 34.6057V27.5503H110.963V27.9905C111.674 27.1328 112.408 26.717 113.265 26.717C113.437 26.717 113.657 26.7415 113.927 26.766V28.7748C113.707 28.7503 113.438 28.7503 113.168 28.7503C111.796 28.7503 110.939 29.6569 110.939 31.1994V34.604L108.587 34.6057Z" fill="#0D528A"/>
<path d="M116.989 26.717H116.818V26.0794V25.8593L116.769 26.0305L116.549 26.717H116.378L116.158 26.0305L116.109 25.8593L116.133 26.0794V26.717H115.962V25.6637H116.207L116.476 26.4969L116.72 25.6637H116.965V26.717H116.989ZM115.545 26.717H115.374V25.8349H115.031V25.6882H115.889V25.8349H115.547V26.717" fill="#0D528A"/>
</g>
<defs>
<clipPath id="clip0_114_234">
<rect width="89.4375" height="36" fill="white" transform="translate(27.5625 12.9375)"/>
</clipPath>
</defs>
</svg>
