<svg width="72" height="70" viewBox="0 0 72 70" fill="none" xmlns="http://www.w3.org/2000/svg">
<g clip-path="url(#clip0_44_48)">
<path d="M59.78 0H11.9C5.32781 0 0 5.32781 0 11.9V57.988C0 64.5602 5.32781 69.888 11.9 69.888H59.78C66.3522 69.888 71.68 64.5602 71.68 57.988V11.9C71.68 5.32781 66.3522 0 59.78 0Z" fill="#470137"/>
<path d="M37.6819 18.3795L28.7379 33.1417L38.3069 48.8175C38.3683 48.9272 38.3855 49.0561 38.355 49.1781C38.3401 49.2301 38.3082 49.243 38.2593 49.2449L38.2047 49.2442L38.1388 49.2424C38.1029 49.2423 38.0628 49.2441 38.0185 49.2514L31.1193 49.2512L30.9837 49.2493C30.6117 49.2395 30.344 49.1863 30.1805 48.9136C29.5388 47.6634 28.8977 46.4213 28.2571 45.1871C27.6956 44.1075 27.1039 43.0092 26.482 41.8922L26.2135 41.4123C25.4922 40.1306 24.779 38.8323 24.0737 37.5174H24.0256C23.3839 38.7999 22.7187 40.0822 22.03 41.3643C21.3404 42.6468 20.6592 43.921 19.9865 45.1871C19.3133 46.4538 18.6241 47.712 17.9188 48.9617C17.8055 49.2163 17.6172 49.2694 17.3545 49.2784L17.2455 49.28H10.6579L10.6294 49.2808L10.5352 49.2894C10.4829 49.2924 10.4517 49.2812 10.4415 49.2021C10.4234 49.0849 10.4491 48.9651 10.5137 48.8655L19.7941 33.6225L10.754 18.3313C10.6579 18.2037 10.6419 18.0995 10.7059 18.0188C10.7779 17.9356 10.8848 17.8911 10.9945 17.8986H17.7745C17.9223 17.8905 18.0701 17.9151 18.2073 17.9708C18.3223 18.0359 18.4209 18.1263 18.4957 18.2352C19.0728 19.5177 19.7139 20.7999 20.4191 22.082C21.124 23.3646 21.8372 24.6308 22.559 25.8808C23.2803 27.131 23.9454 28.3972 24.5545 29.6795H24.6027C25.2435 28.3654 25.8926 27.0831 26.5501 25.8327C27.2068 24.5825 27.88 23.3242 28.5696 22.058C29.2587 20.792 29.9239 19.5338 30.5652 18.2833C30.6021 18.1646 30.6682 18.0571 30.7575 17.9708C30.8763 17.9105 31.0098 17.8854 31.1423 17.8986H37.4414C37.5665 17.8677 37.6963 17.9276 37.7539 18.0429C37.8063 18.1476 37.7863 18.2727 37.7073 18.3558L37.6819 18.3795ZM51.8136 49.8718L51.4818 49.8754C49.2685 49.909 47.0756 49.4491 45.0624 48.529C43.1869 47.661 41.6192 46.2441 40.5665 44.4658C39.5049 42.7027 38.9602 40.5061 38.9326 37.8759L38.9315 37.6617C38.9134 35.4548 39.4773 33.282 40.5665 31.3625C41.6571 29.4616 43.2468 27.8966 45.162 26.836L45.3269 26.7463C47.4103 25.5922 49.9267 25.0152 52.8763 25.0152L53.0053 25.0167L53.1525 25.0213L53.3178 25.0288L53.5013 25.0393L53.8099 25.061L54.1594 25.0891L54.4149 25.1114V15.6386C54.4149 15.4147 54.5112 15.302 54.7035 15.302H60.7622C60.8417 15.2906 60.9218 15.3174 60.9786 15.3741C61.0354 15.4308 61.0621 15.511 61.0508 15.5905V44.0089C61.0508 44.4862 61.0692 45 61.106 45.5501L61.1956 46.7976L61.2432 47.5191C61.2552 47.7236 61.1406 47.9145 60.9546 48C59.3915 48.6519 57.7635 49.1355 56.098 49.4425C54.6839 49.7035 53.2509 49.8471 51.8136 49.8718ZM54.4149 43.9128V30.7855C54.155 30.7151 53.8896 30.6668 53.6216 30.6412C53.294 30.6083 52.965 30.5922 52.6358 30.5931C51.4689 30.5815 50.3157 30.8451 49.2698 31.3625C48.2511 31.8689 47.3813 32.6311 46.7454 33.5744C46.1107 34.503 45.7824 35.7154 45.7607 37.2117L45.7596 37.3732C45.7362 38.4214 45.9074 39.4648 46.2645 40.4506C46.5551 41.2449 47.0145 41.9667 47.6109 42.5664C48.1819 43.1181 48.8733 43.5296 49.6304 43.7685C50.4302 44.0275 51.2662 44.1574 52.1068 44.1534C52.5554 44.1534 52.9722 44.1372 53.3571 44.1051C53.6642 44.082 53.9686 44.0313 54.2665 43.9538L54.4149 43.9128Z" fill="#FF61F6"/>
</g>
<defs>
<clipPath id="clip0_44_48">
<rect width="71.68" height="70" fill="white"/>
</clipPath>
</defs>
</svg>
