<svg width="14" height="21" viewBox="0 0 14 21" fill="none" xmlns="http://www.w3.org/2000/svg">
<g clip-path="url(#clip0_120_243)">
<path d="M3.8125 20.3125C5.62375 20.3125 7.09375 18.8425 7.09375 17.0312V13.75H3.8125C2.00125 13.75 0.53125 15.22 0.53125 17.0312C0.53125 18.8425 2.00125 20.3125 3.8125 20.3125Z" fill="#0ACF83"/>
<path d="M0.53125 10.4688C0.53125 8.6575 2.00125 7.1875 3.8125 7.1875H7.09375V13.75H3.8125C2.00125 13.75 0.53125 12.28 0.53125 10.4688Z" fill="#A259FF"/>
<path d="M0.53125 3.90625C0.53125 2.095 2.00125 0.625 3.8125 0.625H7.09375V7.1875H3.8125C2.00125 7.1875 0.53125 5.7175 0.53125 3.90625Z" fill="#F24E1E"/>
<path d="M7.09375 0.625H10.375C12.1862 0.625 13.6562 2.095 13.6562 3.90625C13.6562 5.7175 12.1862 7.1875 10.375 7.1875H7.09375V0.625Z" fill="#FF7262"/>
<path d="M13.6562 10.4688C13.6562 12.28 12.1862 13.75 10.375 13.75C8.56375 13.75 7.09375 12.28 7.09375 10.4688C7.09375 8.6575 8.56375 7.1875 10.375 7.1875C12.1862 7.1875 13.6562 8.6575 13.6562 10.4688Z" fill="#1ABCFE"/>
</g>
<defs>
<clipPath id="clip0_120_243">
<rect width="13.125" height="19.6875" fill="white" transform="translate(0.53125 0.625)"/>
</clipPath>
</defs>
</svg>
