<svg width="47" height="70" viewBox="0 0 47 70" fill="none" xmlns="http://www.w3.org/2000/svg">
<g clip-path="url(#clip0_44_9)">
<path d="M11.6667 70C18.1067 70 23.3333 64.7733 23.3333 58.3333V46.6666H11.6667C5.22667 46.6666 0 51.8933 0 58.3333C0 64.7733 5.22667 70 11.6667 70Z" fill="#0ACF83"/>
<path d="M0 35C0 28.56 5.22667 23.3334 11.6667 23.3334H23.3333V46.6667H11.6667C5.22667 46.6667 0 41.44 0 35Z" fill="#A259FF"/>
<path d="M0 11.6667C0 5.22667 5.22667 0 11.6667 0H23.3333V23.3333H11.6667C5.22667 23.3333 0 18.1067 0 11.6667Z" fill="#F24E1E"/>
<path d="M23.3333 0H35C41.44 0 46.6667 5.22667 46.6667 11.6667C46.6667 18.1067 41.44 23.3333 35 23.3333H23.3333V0Z" fill="#FF7262"/>
<path d="M46.6667 35C46.6667 41.44 41.44 46.6667 35 46.6667C28.56 46.6667 23.3333 41.44 23.3333 35C23.3333 28.56 28.56 23.3334 35 23.3334C41.44 23.3334 46.6667 28.56 46.6667 35Z" fill="#1ABCFE"/>
</g>
<defs>
<clipPath id="clip0_44_9">
<rect width="46.6667" height="70" fill="white"/>
</clipPath>
</defs>
</svg>
