<svg width="48" height="70" viewBox="0 0 48 70" fill="none" xmlns="http://www.w3.org/2000/svg">
<g clip-path="url(#clip0_137_286)">
<path d="M12.3332 70C18.7732 70 23.9998 64.7734 23.9998 58.3334V46.6667H12.3332C5.89317 46.6667 0.666504 51.8934 0.666504 58.3334C0.666504 64.7734 5.89317 70 12.3332 70Z" fill="#0ACF83"/>
<path d="M0.666504 35C0.666504 28.56 5.89317 23.3333 12.3332 23.3333H23.9998V46.6666H12.3332C5.89317 46.6666 0.666504 41.44 0.666504 35Z" fill="#A259FF"/>
<path d="M0.666504 11.6667C0.666504 5.22667 5.89317 0 12.3332 0H23.9998V23.3333H12.3332C5.89317 23.3333 0.666504 18.1067 0.666504 11.6667Z" fill="#F24E1E"/>
<path d="M24 0H35.6667C42.1067 0 47.3333 5.22667 47.3333 11.6667C47.3333 18.1067 42.1067 23.3333 35.6667 23.3333H24V0Z" fill="#FF7262"/>
<path d="M47.3333 35C47.3333 41.44 42.1067 46.6666 35.6667 46.6666C29.2267 46.6666 24 41.44 24 35C24 28.56 29.2267 23.3333 35.6667 23.3333C42.1067 23.3333 47.3333 28.56 47.3333 35Z" fill="#1ABCFE"/>
</g>
<defs>
<clipPath id="clip0_137_286">
<rect width="46.6667" height="70" fill="white" transform="translate(0.666504)"/>
</clipPath>
</defs>
</svg>
