<svg width="27" height="40" viewBox="0 0 27 40" fill="none" xmlns="http://www.w3.org/2000/svg">
<g clip-path="url(#clip0_114_209)">
<path d="M6.625 39.625C10.2475 39.625 13.1875 36.685 13.1875 33.0625V26.5H6.625C3.0025 26.5 0.0625 29.44 0.0625 33.0625C0.0625 36.685 3.0025 39.625 6.625 39.625Z" fill="#0ACF83"/>
<path d="M0.0625 19.9375C0.0625 16.315 3.0025 13.375 6.625 13.375H13.1875V26.5H6.625C3.0025 26.5 0.0625 23.56 0.0625 19.9375Z" fill="#A259FF"/>
<path d="M0.0625 6.8125C0.0625 3.19 3.0025 0.25 6.625 0.25H13.1875V13.375H6.625C3.0025 13.375 0.0625 10.435 0.0625 6.8125Z" fill="#F24E1E"/>
<path d="M13.1875 0.25H19.75C23.3725 0.25 26.3125 3.19 26.3125 6.8125C26.3125 10.435 23.3725 13.375 19.75 13.375H13.1875V0.25Z" fill="#FF7262"/>
<path d="M26.3125 19.9375C26.3125 23.56 23.3725 26.5 19.75 26.5C16.1275 26.5 13.1875 23.56 13.1875 19.9375C13.1875 16.315 16.1275 13.375 19.75 13.375C23.3725 13.375 26.3125 16.315 26.3125 19.9375Z" fill="#1ABCFE"/>
</g>
<defs>
<clipPath id="clip0_114_209">
<rect width="26.25" height="39.375" fill="white" transform="translate(0.0625 0.25)"/>
</clipPath>
</defs>
</svg>
