<svg width="30" height="30" viewBox="0 0 30 30" fill="none" xmlns="http://www.w3.org/2000/svg">
<circle cx="14.875" cy="14.875" r="14.125" stroke="#F8F8F8" stroke-width="0.5"/>
<g clip-path="url(#clip0_120_222)">
<path d="M12.9229 14.2002C12.9229 14.2002 14.8389 14.0587 14.8389 11.8246C14.8389 9.59036 13.2714 8.5 11.2858 8.5H4.75195V20.9854H11.2858C11.2858 20.9854 15.2744 21.1107 15.2744 17.3003C15.2744 17.3003 15.4483 14.2002 12.9229 14.2002ZM10.8155 10.7191H11.2858C11.2858 10.7191 12.1739 10.7191 12.1739 12.0182C12.1739 13.3171 11.6516 13.5054 11.0591 13.5054H7.63084V10.7191H10.8155ZM11.1011 18.7663H7.63084V15.4298H11.2858C11.2858 15.4298 12.6095 15.4125 12.6095 17.1444C12.6095 18.6048 11.6208 18.7553 11.1011 18.7663ZM20.594 11.6766C15.7653 11.6766 15.7696 16.4739 15.7696 16.4739C15.7696 16.4739 15.4383 21.2465 20.594 21.2465C20.594 21.2465 24.8904 21.4906 24.8904 17.9265H22.6808C22.6808 17.9265 22.7545 19.2687 20.6677 19.2687C20.6677 19.2687 18.4578 19.4159 18.4578 17.0965H24.9641C24.9641 17.0965 25.676 11.6766 20.594 11.6766ZM18.4335 15.4298C18.4335 15.4298 18.7033 13.5054 20.6431 13.5054C22.5825 13.5054 22.5582 15.4298 22.5582 15.4298H18.4335ZM23.0729 10.773H17.8925V9.23555H23.0729V10.773Z" fill="#F8F8F8"/>
</g>
<defs>
<clipPath id="clip0_120_222">
<rect width="20.25" height="12.75" fill="white" transform="translate(4.75 8.5)"/>
</clipPath>
</defs>
</svg>
