<svg width="1440" height="158" viewBox="0 0 1440 158" fill="none" xmlns="http://www.w3.org/2000/svg">
<circle cx="137.5" cy="78.5" r="56.5" stroke="#F8F8F8" stroke-width="2"/>
<g clip-path="url(#clip0_75_165)">
<path d="M129.691 75.8004C129.691 75.8004 137.355 75.2347 137.355 66.2982C137.355 57.3612 131.085 52.9998 123.143 52.9998H97.0077V102.941H123.143C123.143 102.941 139.098 103.442 139.098 88.2008C139.098 88.201 139.793 75.8004 129.691 75.8004ZM121.262 61.8763H123.143C123.143 61.8763 126.696 61.8763 126.696 67.0725C126.696 72.268 124.606 73.0213 122.236 73.0213H108.523V61.8763H121.262ZM122.404 94.065H108.523V80.7188H123.143C123.143 80.7188 128.438 80.6497 128.438 87.5774C128.438 93.4189 124.483 94.0209 122.404 94.065ZM160.376 65.7063C141.061 65.7063 141.078 84.8954 141.078 84.8954C141.078 84.8954 139.753 103.986 160.376 103.986C160.376 103.986 177.561 104.962 177.561 90.7057H168.723C168.723 90.7057 169.018 96.0744 160.671 96.0744C160.671 96.0744 151.831 96.6635 151.831 87.3857H177.856C177.856 87.3856 180.704 65.7063 160.376 65.7063ZM151.734 80.7188C151.734 80.7188 152.813 73.0212 160.572 73.0212C168.33 73.0212 168.233 80.7188 168.233 80.7188H151.734ZM170.291 62.0919H149.57V55.9419H170.291V62.0919Z" fill="#F8F8F8"/>
</g>
<defs>
<clipPath id="clip0_75_165">
<rect width="81" height="51" fill="white" transform="translate(97 53)"/>
</clipPath>
</defs>
</svg>
