<svg width="115" height="115" viewBox="0 0 115 115" fill="none" xmlns="http://www.w3.org/2000/svg">
<circle cx="57.5" cy="57.5" r="56.5" stroke="#F8F8F8" stroke-width="2"/>
<g clip-path="url(#clip0_75_177)">
<path d="M49.6915 54.8004C49.6915 54.8004 57.3554 54.2347 57.3554 45.2982C57.3554 36.3612 51.0853 31.9998 43.143 31.9998H17.0077V81.9412H43.143C43.143 81.9412 59.0976 82.4424 59.0976 67.2008C59.0976 67.201 59.7932 54.8004 49.6915 54.8004ZM41.2618 40.8763H43.143C43.143 40.8763 46.6955 40.8763 46.6955 46.0725C46.6955 51.268 44.6062 52.0213 42.2364 52.0213H28.5232V40.8763H41.2618ZM42.4044 73.065H28.5232V59.7188H43.143C43.143 59.7188 48.4379 59.6497 48.4379 66.5774C48.4379 72.4189 44.4831 73.0209 42.4044 73.065ZM80.3758 44.7063C61.061 44.7063 61.0782 63.8954 61.0782 63.8954C61.0782 63.8954 59.7529 82.9859 80.3758 82.9859C80.3758 82.9859 97.5614 83.9622 97.5614 69.7057H88.7231C88.7231 69.7057 89.0179 75.0744 80.6706 75.0744C80.6706 75.0744 71.8309 75.6635 71.8309 66.3857H97.8562C97.8562 66.3856 100.704 44.7063 80.3758 44.7063ZM71.7338 59.7188C71.7338 59.7188 72.813 52.0212 80.5722 52.0212C88.3298 52.0212 88.2326 59.7188 88.2326 59.7188H71.7338ZM90.2915 41.0919H69.57V34.9419H90.2915V41.0919Z" fill="#F8F8F8"/>
</g>
<defs>
<clipPath id="clip0_75_177">
<rect width="81" height="51" fill="white" transform="translate(17 32)"/>
</clipPath>
</defs>
</svg>
