<svg width="29" height="40" viewBox="0 0 29 40" fill="none" xmlns="http://www.w3.org/2000/svg">
<path d="M14.5558 39.375L3.16369 36.2125L0.625 7.73816H28.5208L25.9794 36.2081L14.5558 39.375Z" fill="#264DE4"/>
<path d="M23.8036 34.3951L25.9754 10.0663H14.5728V36.9543L23.8036 34.3951Z" fill="#2965F1"/>
<path d="M6.44482 20.6271L6.75783 24.1193H14.5728V20.6271H6.44482Z" fill="#EBEBEB"/>
<path d="M5.81592 13.5586L6.13338 17.0509H14.5729V13.5586H14.5608H5.81592Z" fill="#EBEBEB"/>
<path d="M14.573 29.6969L14.5577 29.7009L10.6684 28.6507L10.4197 25.8655H8.52982H6.91406L7.40333 31.3488L14.557 33.3347L14.573 33.3303V29.6969Z" fill="#EBEBEB"/>
<path d="M7.18994 0H11.4197V1.7688H8.95874V3.5376H11.4197V5.3064H7.18994V0Z" fill="#F8F8F8"/>
<path d="M12.2656 0H16.4954V1.53809H14.0344V1.8457H16.4954V5.3833H12.2656V3.76831H14.7266V3.46069H12.2656V0Z" fill="#F8F8F8"/>
<path d="M17.3413 0H21.571V1.53809H19.1101V1.8457H21.571V5.3833H17.3413V3.76831H19.8022V3.46069H17.3413V0Z" fill="#F8F8F8"/>
<path d="M22.6787 20.627L23.3092 13.5586H14.561V17.0509H19.482L19.1642 20.627H14.561V24.1192H18.8614L18.456 28.6484L14.561 29.6997V33.333L21.7204 31.3488L21.7729 30.7588L22.5935 21.5648L22.6787 20.627Z" fill="white"/>
</svg>
