<svg width="50" height="70" viewBox="0 0 50 70" fill="none" xmlns="http://www.w3.org/2000/svg">
<path d="M24.7659 70L4.51322 64.3777L0 13.7566H49.5925L45.0745 64.3697L24.7659 70Z" fill="#264DE4"/>
<path d="M41.2066 61.1469L45.0676 17.8956H24.7963V65.6965L41.2066 61.1469Z" fill="#2965F1"/>
<path d="M10.3464 36.6703L10.9029 42.8787H24.7962V36.6703H10.3464Z" fill="#EBEBEB"/>
<path d="M9.22836 24.1042L9.79274 30.3128H24.7963V24.1042H24.7748H9.22836Z" fill="#EBEBEB"/>
<path d="M24.7963 52.7944L24.769 52.8016L17.8546 50.9346L17.4126 45.983H14.0528H11.1803L12.0501 55.7312L24.7677 59.2617L24.7963 59.2538V52.7944Z" fill="#EBEBEB"/>
<path d="M11.6713 0H19.1908V3.14453H14.8158V6.28906H19.1908V9.43359H11.6713V0Z" fill="#F8F8F8"/>
<path d="M20.6947 0H28.2142V2.73438H23.8392V3.28125H28.2142V9.57031H20.6947V6.69922H25.0697V6.15234H20.6947V0Z" fill="#F8F8F8"/>
<path d="M29.7181 0H37.2377V2.73438H32.8627V3.28125H37.2377V9.57031H29.7181V6.69922H34.0931V6.15234H29.7181V0Z" fill="#F8F8F8"/>
<path d="M39.2063 36.6703L40.3271 24.1042H24.7748V30.3128H33.5231L32.9582 36.6703H24.7748V42.8787H32.4198L31.6992 50.9307L24.7748 52.7996V59.2587L37.5025 55.7313L37.5959 54.6824L39.0548 38.3375L39.2063 36.6703Z" fill="white"/>
</svg>
