<svg width="51" height="70" viewBox="0 0 51 70" fill="none" xmlns="http://www.w3.org/2000/svg">
<path d="M50.1863 13.7566L45.6683 64.3697L25.3597 70L5.10697 64.3777L0.59375 13.7566H50.1863Z" fill="#E44D26"/>
<path d="M25.39 65.6965L41.8004 61.1469L45.6613 17.8956H25.39V65.6965Z" fill="#F16529"/>
<path d="M16.6072 30.3128H25.39V24.1042H25.3686H9.82214L9.97076 25.7699L11.4967 42.8787H25.39V36.6703H17.1746L16.6072 30.3128Z" fill="#EBEBEB"/>
<path d="M18.0064 45.983H14.6465H11.774L12.6439 55.7312L25.3614 59.2617L25.39 59.2538V52.7944L25.3628 52.8016L18.4484 50.9346L18.0064 45.983Z" fill="#EBEBEB"/>
<path d="M5.20789 0H8.36294V3.11719H11.2491V0H14.4043V9.43961H11.2492V6.27867H8.36308V9.43961H5.20802L5.20789 0Z" fill="#F8F8F8"/>
<path d="M18.5533 3.13031H15.7757V0H24.4874V3.13031H21.7086V9.43961H18.5534L18.5533 3.13031Z" fill="#F8F8F8"/>
<path d="M25.87 0H29.1599L31.1836 3.3168L33.2053 0H36.4964V9.43961H33.3543V4.76082L31.1836 8.11713H31.1293L28.9571 4.76082V9.43961H25.87V0Z" fill="#F8F8F8"/>
<path d="M38.0666 0H41.2226V6.31941H45.6595V9.43961H38.0666V0Z" fill="#F8F8F8"/>
<path d="M25.3686 42.8787H33.0136L32.293 50.9306L25.3686 52.7995V59.2587L38.0963 55.7312L38.1896 54.6823L39.6486 38.3374L39.8 36.6703H38.127H25.3686V42.8787Z" fill="white"/>
<path d="M25.3686 30.2976V30.3128H40.345H40.365L40.4895 28.9173L40.7724 25.7699L40.9209 24.1042H25.3686V27.9603V30.2976Z" fill="white"/>
</svg>
