<svg width="29" height="40" viewBox="0 0 29 40" fill="none" xmlns="http://www.w3.org/2000/svg">
<path d="M28.4798 7.73816L25.9384 36.2081L14.5148 39.375L3.12267 36.2125L0.583984 7.73816H28.4798Z" fill="#E44D26"/>
<path d="M14.5317 36.9543L23.7626 34.3951L25.9343 10.0663H14.5317V36.9543Z" fill="#F16529"/>
<path d="M9.59151 17.0509H14.5318V13.5586H14.5198H5.7749L5.8585 14.4955L6.71683 24.1192H14.5318V20.627H9.91066L9.59151 17.0509Z" fill="#EBEBEB"/>
<path d="M10.3787 25.8655H8.48881H6.87305L7.36231 31.3488L14.5159 33.3347L14.532 33.3303V29.6969L14.5167 29.7009L10.6274 28.6507L10.3787 25.8655Z" fill="#EBEBEB"/>
<path d="M3.1792 0H4.95392V1.75342H6.57737V0H8.35217V5.30978H6.57745V3.53175H4.954V5.30978H3.17928L3.1792 0Z" fill="#F8F8F8"/>
<path d="M10.6864 1.7608H9.12402V0H14.0244V1.7608H12.4613V5.30978H10.6865L10.6864 1.7608Z" fill="#F8F8F8"/>
<path d="M14.8018 0H16.6523L17.7906 1.8657L18.9278 0H20.7791V5.30978H19.0117V2.67796L17.7906 4.56589H17.7601L16.5383 2.67796V5.30978H14.8018V0Z" fill="#F8F8F8"/>
<path d="M21.6626 0H23.4379V3.55467H25.9336V5.30978H21.6626V0Z" fill="#F8F8F8"/>
<path d="M14.52 24.1193H18.8204L18.415 28.6485L14.52 29.6998V33.333L21.6793 31.3488L21.7319 30.7588L22.5525 21.5648L22.6377 20.6271H21.6967H14.52V24.1193Z" fill="white"/>
<path d="M14.52 17.0424V17.0509H22.9443H22.9555L23.0256 16.2659L23.1847 14.4955L23.2682 13.5586H14.52V15.7276V17.0424Z" fill="white"/>
</svg>
