<svg width="51" height="70" viewBox="0 0 51 70" fill="none" xmlns="http://www.w3.org/2000/svg">
<path d="M50.0921 13.7567L45.574 64.3698L25.2654 70L5.01273 64.3777L0.499512 13.7567H50.0921Z" fill="#E44D26"/>
<path d="M25.2959 65.6965L41.7062 61.1469L45.5672 17.8957H25.2959V65.6965Z" fill="#F16529"/>
<path d="M16.5131 30.3127H25.2959V24.1042H25.2745H9.72803L9.87664 25.7698L11.4026 42.8787H25.2959V36.6703H17.0805L16.5131 30.3127Z" fill="#EBEBEB"/>
<path d="M17.912 45.983H14.5521H11.6797L12.5495 55.7312L25.2671 59.2617L25.2956 59.2538V52.7944L25.2684 52.8016L18.354 50.9346L17.912 45.983Z" fill="#EBEBEB"/>
<path d="M5.11377 0H8.26883V3.11719H11.155V0H14.3102V9.43961H11.1551V6.27867H8.26897V9.43961H5.11391L5.11377 0Z" fill="#F8F8F8"/>
<path d="M18.4592 3.13031H15.6816V0H24.3934V3.13031H21.6146V9.43961H18.4594L18.4592 3.13031Z" fill="#F8F8F8"/>
<path d="M25.7759 0H29.0657L31.0895 3.3168L33.1111 0H36.4022V9.43961H33.2601V4.76082L31.0895 8.11713H31.0352L28.863 4.76082V9.43961H25.7759V0Z" fill="#F8F8F8"/>
<path d="M37.9722 0H41.1282V6.31941H45.5651V9.43961H37.9722V0Z" fill="#F8F8F8"/>
<path d="M25.2744 42.8787H32.9195L32.1988 50.9306L25.2744 52.7995V59.2587L38.0021 55.7312L38.0955 54.6823L39.5544 38.3374L39.7059 36.6703H38.0329H25.2744V42.8787Z" fill="white"/>
<path d="M25.2744 30.2975V30.3127H40.2509H40.2708L40.3954 28.9172L40.6782 25.7698L40.8267 24.1042H25.2744V27.9602V30.2975Z" fill="white"/>
</svg>
