<svg width="23" height="12" viewBox="0 0 23 12" fill="none" xmlns="http://www.w3.org/2000/svg">
<path d="M1.49999 0.733957C1.38956 0.732645 1.27992 0.749778 1.17745 0.78436C1.07498 0.818941 0.98171 0.870282 0.903069 0.935398C0.824427 1.00051 0.761981 1.07811 0.719358 1.16367C0.676734 1.24923 0.654785 1.34105 0.654785 1.43379C0.654785 1.52654 0.676734 1.61836 0.719358 1.70392C0.761981 1.78948 0.824427 1.86708 0.903069 1.93219C0.98171 1.99731 1.07498 2.04865 1.17745 2.08323C1.27992 2.11781 1.38956 2.13494 1.49999 2.13363H21.5C21.6104 2.13494 21.72 2.11781 21.8225 2.08323C21.925 2.04865 22.0183 1.99731 22.0969 1.93219C22.1755 1.86708 22.238 1.78948 22.2806 1.70392C22.3232 1.61836 22.3452 1.52654 22.3452 1.43379C22.3452 1.34105 22.3232 1.24923 22.2806 1.16367C22.238 1.07811 22.1755 1.00051 22.0969 0.935398C22.0183 0.870282 21.925 0.818941 21.8225 0.78436C21.72 0.749778 21.6104 0.732645 21.5 0.733957H1.49999ZM1.49999 5.63282C1.38956 5.63151 1.27992 5.64864 1.17745 5.68323C1.07498 5.71781 0.98171 5.76915 0.903069 5.83427C0.824427 5.89938 0.761981 5.97697 0.719358 6.06253C0.676734 6.14809 0.654785 6.23992 0.654785 6.33266C0.654785 6.42541 0.676734 6.51723 0.719358 6.60279C0.761981 6.68835 0.824427 6.76594 0.903069 6.83106C0.98171 6.89617 1.07498 6.94752 1.17745 6.9821C1.27992 7.01668 1.38956 7.03381 1.49999 7.0325H21.5C21.6104 7.03381 21.72 7.01668 21.8225 6.9821C21.925 6.94752 22.0183 6.89617 22.0969 6.83106C22.1755 6.76594 22.238 6.68835 22.2806 6.60279C22.3232 6.51723 22.3452 6.42541 22.3452 6.33266C22.3452 6.23992 22.3232 6.14809 22.2806 6.06253C22.238 5.97697 22.1755 5.89938 22.0969 5.83427C22.0183 5.76915 21.925 5.71781 21.8225 5.68323C21.72 5.64864 21.6104 5.63151 21.5 5.63282H1.49999ZM1.49999 10.5317C1.38956 10.5304 1.27992 10.5475 1.17745 10.5821C1.07498 10.6167 0.98171 10.668 0.903069 10.7331C0.824427 10.7982 0.761981 10.8758 0.719358 10.9614C0.676734 11.047 0.654785 11.1388 0.654785 11.2315C0.654785 11.3243 0.676734 11.4161 0.719358 11.5017C0.761981 11.5872 0.824427 11.6648 0.903069 11.7299C0.98171 11.795 1.07498 11.8464 1.17745 11.881C1.27992 11.9155 1.38956 11.9327 1.49999 11.9314H21.5C21.6104 11.9327 21.72 11.9155 21.8225 11.881C21.925 11.8464 22.0183 11.795 22.0969 11.7299C22.1755 11.6648 22.238 11.5872 22.2806 11.5017C22.3232 11.4161 22.3452 11.3243 22.3452 11.2315C22.3452 11.1388 22.3232 11.047 22.2806 10.9614C22.238 10.8758 22.1755 10.7982 22.0969 10.7331C22.0183 10.668 21.925 10.6167 21.8225 10.5821C21.72 10.5475 21.6104 10.5304 21.5 10.5317H1.49999Z" fill="#F8F8F8"/>
</svg>
