<svg width="23" height="12" viewBox="0 0 23 12" fill="none" xmlns="http://www.w3.org/2000/svg">
<path d="M1.49999 0.733835C1.38956 0.732523 1.27992 0.749656 1.17745 0.784238C1.07498 0.818819 0.98171 0.87016 0.903069 0.935276C0.824427 1.00039 0.761981 1.07798 0.719358 1.16355C0.676734 1.24911 0.654785 1.34093 0.654785 1.43367C0.654785 1.52642 0.676734 1.61824 0.719358 1.7038C0.761981 1.78936 0.824427 1.86695 0.903069 1.93207C0.98171 1.99719 1.07498 2.04853 1.17745 2.08311C1.27992 2.11769 1.38956 2.13482 1.49999 2.13351H21.5C21.6104 2.13482 21.72 2.11769 21.8225 2.08311C21.925 2.04853 22.0183 1.99719 22.0969 1.93207C22.1755 1.86695 22.238 1.78936 22.2806 1.7038C22.3232 1.61824 22.3452 1.52642 22.3452 1.43367C22.3452 1.34093 22.3232 1.24911 22.2806 1.16355C22.238 1.07798 22.1755 1.00039 22.0969 0.935276C22.0183 0.87016 21.925 0.818819 21.8225 0.784238C21.72 0.749656 21.6104 0.732523 21.5 0.733835H1.49999ZM1.49999 5.6327C1.38956 5.63139 1.27992 5.64852 1.17745 5.6831C1.07498 5.71769 0.98171 5.76903 0.903069 5.83414C0.824427 5.89926 0.761981 5.97685 0.719358 6.06241C0.676734 6.14797 0.654785 6.23979 0.654785 6.33254C0.654785 6.42529 0.676734 6.51711 0.719358 6.60267C0.761981 6.68823 0.824427 6.76582 0.903069 6.83094C0.98171 6.89605 1.07498 6.94739 1.17745 6.98198C1.27992 7.01656 1.38956 7.03369 1.49999 7.03238H21.5C21.6104 7.03369 21.72 7.01656 21.8225 6.98198C21.925 6.94739 22.0183 6.89605 22.0969 6.83094C22.1755 6.76582 22.238 6.68823 22.2806 6.60267C22.3232 6.51711 22.3452 6.42529 22.3452 6.33254C22.3452 6.23979 22.3232 6.14797 22.2806 6.06241C22.238 5.97685 22.1755 5.89926 22.0969 5.83414C22.0183 5.76903 21.925 5.71769 21.8225 5.6831C21.72 5.64852 21.6104 5.63139 21.5 5.6327H1.49999ZM1.49999 10.5316C1.38956 10.5303 1.27992 10.5474 1.17745 10.582C1.07498 10.6166 0.98171 10.6679 0.903069 10.733C0.824427 10.7981 0.761981 10.8757 0.719358 10.9613C0.676734 11.0468 0.654785 11.1387 0.654785 11.2314C0.654785 11.3242 0.676734 11.416 0.719358 11.5015C0.761981 11.5871 0.824427 11.6647 0.903069 11.7298C0.98171 11.7949 1.07498 11.8463 1.17745 11.8808C1.27992 11.9154 1.38956 11.9326 1.49999 11.9312H21.5C21.6104 11.9326 21.72 11.9154 21.8225 11.8808C21.925 11.8463 22.0183 11.7949 22.0969 11.7298C22.1755 11.6647 22.238 11.5871 22.2806 11.5015C22.3232 11.416 22.3452 11.3242 22.3452 11.2314C22.3452 11.1387 22.3232 11.0468 22.2806 10.9613C22.238 10.8757 22.1755 10.7981 22.0969 10.733C22.0183 10.6679 21.925 10.6166 21.8225 10.582C21.72 10.5474 21.6104 10.5303 21.5 10.5316H1.49999Z" fill="#F8F8F8"/>
</svg>
