<svg width="20" height="20" viewBox="0 0 20 20" fill="none" xmlns="http://www.w3.org/2000/svg">
<g clip-path="url(#clip0_137_18)">
<path d="M9.60017 0C9.51317 0 9.42651 0.0275938 9.35251 0.0835937L0.15251 7.26406C-0.0194904 7.40006 -0.0514591 7.65134 0.0845409 7.82734C0.220541 7.99934 0.471822 8.03131 0.647822 7.89531L1.20017 7.46406V17.9797C1.20017 18.1997 1.38017 18.3797 1.60017 18.3797H7.20017V11.1797H12.0002V18.3797H17.6002C17.8202 18.3797 18.0002 18.1997 18.0002 17.9797V7.46406L18.5525 7.89531C18.6285 7.95131 18.7122 7.97969 18.8002 7.97969C18.9202 7.97969 19.0358 7.92734 19.1158 7.82734C19.2518 7.65134 19.2198 7.40006 19.0478 7.26406L9.84782 0.0835937C9.77382 0.0275938 9.68717 0 9.60017 0ZM13.6002 1.57969V2L16.0002 3.87188V1.57969H13.6002Z" fill="#F8F8F8"/>
</g>
<defs>
<clipPath id="clip0_137_18">
<rect width="20" height="20" fill="white"/>
</clipPath>
</defs>
</svg>
