<svg width="185" height="50" viewBox="0 0 185 50" fill="none" xmlns="http://www.w3.org/2000/svg">
<path d="M8.05 27.625H5.975V42.55C3.975 42.55 2.025 42.475 0 42.475C0.05 37.6 0.225002 13.775 0.275002 7.075C2.325 7.075 3.875 7.075 5.925 7V21.55H7.475L15.775 7H25.175C23.425 8.35 22.25 9.625 21.45 10.6C20.925 11.25 20.2 12.275 18.775 14.35C18.1 15.325 17.75 15.85 17.425 16.35C16.65 17.575 16.05 18.675 15.35 19.975C14.475 21.575 14.275 22.025 13.65 22.75C13.1 23.375 12.55 23.825 12.175 24.125C8.175 24.15 5.175 24.175 4.775 24.175C4.475 24.175 4.15 24.175 4.15 24.175C3.9 24.175 3.675 24.175 3.525 24.175C3.375 24.275 3.2 24.35 3.05 24.45C2.875 24.35 2.725 24.275 2.55 24.175C2.15 24.325 1.75 24.45 1.325 24.6C1.375 24.6 2.25 24.6 2.4 24.6C2.4 24.6 2.4 24.6 2.4 24.625C2.225 24.625 1.375 24.625 1.3 24.625C1.725 24.775 2.175 24.9 2.6 25.05C2.725 24.975 2.875 24.875 3 24.8C3.15 24.875 3.3 24.975 3.45 25.05C3.625 25.05 3.85 25.05 4.125 25.05C4.125 25.05 4.45 25.05 4.8 25.05C5.3 25.05 8.225 25.05 12.225 25.1C12.475 25.225 12.75 25.4 13.025 25.6C13.925 26.225 14.525 26.975 14.925 27.55C15.4 28.2 16.125 29.2 16.925 30.475C18.425 32.825 19.3 34.55 19.725 35.3C20.725 37.125 22.5 39.65 25.975 42.525H16.3C13.525 37.575 10.775 32.6 8 27.65L8.05 27.625Z" fill="#F8F8F8"/>
</svg>
