<svg width="19" height="26" viewBox="0 0 19 26" fill="none" xmlns="http://www.w3.org/2000/svg">
<path d="M5.58661 15.1714H4.14659V25.5292C2.75861 25.5292 1.40533 25.4772 0 25.4772C0.0346995 22.094 0.156149 5.55968 0.190848 0.909957C1.61353 0.909957 2.68921 0.909959 4.11188 0.85791V10.9554H5.18757L10.9477 0.85791H17.4712C16.2567 1.7948 15.4413 2.67963 14.8861 3.35627C14.5217 3.80736 14.0186 4.5187 13.0296 5.95873C12.5612 6.63537 12.3183 6.99971 12.0928 7.34671C11.5549 8.19684 11.1385 8.96023 10.6527 9.86242C10.0455 10.9728 9.90669 11.2851 9.47295 11.7882C9.09126 12.222 8.70956 12.5343 8.44932 12.7425C5.67336 12.7598 3.59139 12.7772 3.3138 12.7772C3.1056 12.7772 2.88006 12.7772 2.88006 12.7772C2.70656 12.7772 2.55041 12.7772 2.44631 12.7772C2.34221 12.8466 2.22076 12.8986 2.11667 12.968C1.99522 12.8986 1.89112 12.8466 1.76967 12.7772C1.49208 12.8813 1.21448 12.968 0.919536 13.0721C0.954235 13.0721 1.56148 13.0721 1.66557 13.0721C1.66557 13.0721 1.66557 13.0721 1.66557 13.0895C1.54413 13.0895 0.954234 13.0895 0.902185 13.0895C1.19713 13.1936 1.50943 13.2803 1.80437 13.3844C1.89112 13.3324 1.99522 13.263 2.08197 13.2109C2.18607 13.263 2.29016 13.3324 2.39426 13.3844C2.51571 13.3844 2.67186 13.3844 2.8627 13.3844C2.8627 13.3844 3.08825 13.3844 3.33115 13.3844C3.67814 13.3844 5.70806 13.3844 8.48402 13.4191C8.65751 13.5059 8.84836 13.6273 9.03921 13.7661C9.6638 14.1998 10.0802 14.7203 10.3578 15.1194C10.6874 15.5705 11.1906 16.2645 11.7458 17.1493C12.7867 18.7802 13.394 19.9773 13.6889 20.4978C14.3829 21.7643 15.6148 23.5166 18.0264 25.5119H11.312C9.3862 22.0766 7.47773 18.624 5.55192 15.1888L5.58661 15.1714Z" fill="#F8F8F8"/>
</svg>
