<svg width="26" height="36" viewBox="0 0 26 36" fill="none" xmlns="http://www.w3.org/2000/svg">
<path d="M8.06245 20.85H5.98745V35.775C3.98745 35.775 2.03745 35.7 0.0124512 35.7C0.0624512 30.825 0.237453 6.99997 0.287453 0.299973C2.33745 0.299973 3.88745 0.299976 5.93745 0.224976V14.775H7.48745L15.7874 0.224976H25.1875C23.4375 1.57498 22.2625 2.84997 21.4625 3.82497C20.9375 4.47497 20.2124 5.49997 18.7874 7.57497C18.1124 8.54997 17.7625 9.07497 17.4375 9.57497C16.6625 10.8 16.0625 11.9 15.3625 13.2C14.4875 14.8 14.2874 15.25 13.6624 15.975C13.1124 16.6 12.5625 17.05 12.1875 17.35C8.18745 17.375 5.18745 17.4 4.78745 17.4C4.48745 17.4 4.16245 17.4 4.16245 17.4C3.91245 17.4 3.68745 17.4 3.53745 17.4C3.38745 17.5 3.21245 17.575 3.06245 17.675C2.88745 17.575 2.73745 17.5 2.56245 17.4C2.16245 17.55 1.76245 17.675 1.33745 17.825C1.38745 17.825 2.26245 17.825 2.41245 17.825C2.41245 17.825 2.41245 17.825 2.41245 17.85C2.23745 17.85 1.38745 17.85 1.31245 17.85C1.73745 18 2.18745 18.125 2.61245 18.275C2.73745 18.2 2.88745 18.1 3.01245 18.025C3.16245 18.1 3.31245 18.2 3.46245 18.275C3.63745 18.275 3.86245 18.275 4.13745 18.275C4.13745 18.275 4.46245 18.275 4.81245 18.275C5.31245 18.275 8.23745 18.275 12.2375 18.325C12.4875 18.45 12.7624 18.625 13.0374 18.825C13.9374 19.45 14.5375 20.2 14.9375 20.775C15.4125 21.425 16.1375 22.425 16.9375 23.7C18.4375 26.05 19.3125 27.775 19.7375 28.525C20.7375 30.35 22.5125 32.875 25.9875 35.75H16.3125C13.5375 30.8 10.7875 25.825 8.01245 20.875L8.06245 20.85Z" fill="#F8F8F8"/>
</svg>
